<svg width="68" height="73" xmlns="http://www.w3.org/2000/svg">

 <g>
  <title>background</title>
  <rect fill="none" id="canvas_background" height="75" width="70" y="-1" x="-1"/>
 </g>
 <g>
  <title>Layer 1</title>
  <g id="svg_1">
   <g id="svg_2">
    <path id="svg_3" fill="none" d="m1176.678,-494.2l0,5.088c0.486,-0.568 0.857,-1.315 0.984,-2.31c0.168,-1.324 -0.291,-2.197 -0.984,-2.778z"/>
   </g>
   <g id="svg_4">
    <g id="svg_5">
     <path id="svg_6" fill="#9A663C" d="m1369.096,-471.334l0,1.064c0,0.268 -0.217,0.485 -0.484,0.485l3.09,0c0.268,0 0.486,-0.218 0.486,-0.485l0,-1.064c0,-0.267 -0.219,-0.485 -0.486,-0.485l-3.09,0c0.267,0 0.484,0.218 0.484,0.485z"/>
     <path id="svg_7" fill="#BC7D48" d="m1366.006,-471.334l0,1.064c0,0.268 0.218,0.485 0.486,0.485l2.119,0c0.268,0 0.484,-0.218 0.484,-0.485l0,-1.064c0,-0.267 -0.217,-0.485 -0.484,-0.485l-2.119,0c-0.268,0 -0.486,0.218 -0.486,0.485z"/>
    </g>
    <path id="svg_8" fill="#594A42" d="m1369.256,-462.074c15.322,0 27.789,-12.465 27.789,-27.787c0,-15.323 -12.467,-27.788 -27.789,-27.788s-27.787,12.465 -27.787,27.788c0,15.322 12.465,27.787 27.787,27.787zm0,-53.388c14.116,0 25.6,11.484 25.6,25.601s-11.483,25.601 -25.6,25.601c-14.117,0 -25.601,-11.484 -25.601,-25.601s11.484,-25.601 25.601,-25.601z"/>
    <path id="svg_9" fill="#594A42" d="m1369.256,-466.684c12.78,0 23.178,-10.397 23.178,-23.178s-10.397,-23.178 -23.178,-23.178c-12.779,0 -23.178,10.397 -23.178,23.178s10.399,23.178 23.178,23.178zm0,-44.897c11.977,0 21.721,9.743 21.721,21.72s-9.744,21.72 -21.721,21.72c-11.976,0 -21.721,-9.743 -21.721,-21.72s9.745,-21.72 21.721,-21.72z"/>
    <path id="svg_10" fill="#594A42" d="m1369.256,-473.199c9.188,0 16.662,-7.475 16.662,-16.662c0,-9.188 -7.475,-16.663 -16.662,-16.663s-16.662,7.475 -16.662,16.663c0,9.187 7.474,16.662 16.662,16.662zm0,-31.867c8.383,0 15.203,6.82 15.203,15.205c0,0.659 -0.056,1.305 -0.138,1.942l-30.131,0c-0.082,-0.638 -0.139,-1.283 -0.139,-1.942c0.001,-8.385 6.821,-15.205 15.205,-15.205zm14.807,18.605c-0.289,1.259 -0.732,2.459 -1.313,3.577l-26.987,0c-0.58,-1.118 -1.023,-2.318 -1.313,-3.577l29.613,0zm-2.168,5.035c-2.729,4.077 -7.374,6.769 -12.639,6.769c-5.264,0 -9.91,-2.691 -12.64,-6.769l25.279,0z"/>
    <circle id="svg_11" r="0.609" fill="#594A42" cy="-509.755" cx="1369.256"/>
    <path id="svg_12" fill="#594A42" d="m1371.701,-472.547l-5.209,0c-0.67,0 -1.215,0.544 -1.215,1.213l0,1.064c0,0.67 0.545,1.214 1.215,1.214l5.209,0c0.671,0 1.215,-0.544 1.215,-1.214l0,-1.064c0,-0.669 -0.544,-1.213 -1.215,-1.213z"/>
   </g>
   <g id="svg_13">
    <g id="svg_14">
     <path id="svg_15" fill="#594A42" d="m1494.596,-523.797l-4.361,0l-7.227,-6.461c-0.188,-0.166 -0.426,-0.258 -0.676,-0.258l-10.92,0l0.932,-4.56c0.041,-0.29 -0.045,-0.584 -0.236,-0.807c-0.193,-0.221 -0.473,-0.349 -0.766,-0.349l-7.697,0c-0.293,0 -0.57,0.128 -0.764,0.349c-0.193,0.223 -0.279,0.517 -0.236,0.807l0.932,4.56l-10.922,0c-0.25,0 -0.488,0.092 -0.674,0.258l-7.133,6.375l-9.867,0c-0.334,0 -0.645,0.163 -0.834,0.437c-0.189,0.275 -0.23,0.625 -0.111,0.936l13.449,23.046c0.031,0.078 0.074,0.145 0.121,0.211l2.699,18.15c0.07,0.498 0.498,0.869 1,0.869l1.172,0l0,4.047l-1.172,0c-0.473,0 -0.883,0.327 -0.986,0.788l-6.561,24.526c-0.277,1.229 0.014,2.5 0.801,3.482c0.785,0.985 1.959,1.551 3.221,1.551l39.428,0c1.26,0 2.436,-0.565 3.223,-1.551c0.785,-0.982 1.078,-2.253 0.799,-3.482l-6.561,-24.526c-0.105,-0.461 -0.514,-0.788 -0.986,-0.788l-1.172,0l0,-4.047l1.172,0c0.504,0 0.93,-0.371 1.002,-0.869l5.254,-35.95l4.658,0c2.244,0 4.068,1.825 4.068,4.068l0,13.259c0,2.244 -1.824,4.067 -4.068,4.067l-3.086,0c-1.861,0 -3.371,1.51 -3.371,3.372c0,1.863 1.51,3.374 3.371,3.374l3.086,0c5.963,0 10.813,-4.853 10.813,-10.813l0,-13.259c-0.002,-5.962 -4.851,-10.812 -10.814,-10.812zm-12.651,-4.696l5.156,4.61l-6.739,0c-0.001,0 -0.001,0 -0.001,-0.001l-2.533,-4.609l4.117,0zm-11.771,-5.714l-0.758,3.354l-3.844,0l-0.76,-3.354l5.362,0zm6.183,5.714c0.008,0.094 0.033,0.188 0.082,0.275l2.383,4.335l-22.567,0l1.858,-4.61l18.244,0zm2.411,6.634l-3.679,39.604l-15.164,0l-3.741,-39.604l22.584,0zm-25.729,-6.634l3.621,0l-1.783,4.422c-0.025,0.062 -0.031,0.125 -0.037,0.188l-3.262,0l-3.693,0l5.154,-4.61zm-5.076,24.61l-0.002,0.003l-11.512,-17.979l7.91,0l0.877,0l0.145,0l1.021,0l4.016,0l-1.957,14.331l-0.498,3.645zm1.545,3.644l2.953,-21.62l2.365,0l3.743,39.604l-6.388,0l-2.673,-17.984zm-1.729,52.376c-0.643,0 -1.24,-0.287 -1.641,-0.788s-0.549,-1.148 -0.408,-1.773l6.383,-23.738l6.52,0l-3.844,26.3l-7.01,0l0,-0.001zm8.373,0l3.844,-26.3l15.043,0l3.848,26.3l-22.735,0zm26.721,-26.3l6.383,23.738c0.143,0.625 -0.008,1.272 -0.408,1.773s-0.998,0.788 -1.641,0.788l-6.957,0l-3.848,-26.3l6.471,0l0,0.001zm-1.713,-2.024l-27.334,0l0,-4.047l27.334,0l0,4.047zm7.408,-45.562l-0.361,2.523l-0.148,1.027l-0.145,1.01l-5.109,34.933l-6.36,0l3.679,-39.604l5.646,0l1.18,0l1.635,0l-0.017,0.111zm14.817,22.023c0,4.846 -3.943,8.789 -8.789,8.789l-3.086,0c-0.742,0 -1.348,-0.604 -1.348,-1.35c0,-0.743 0.605,-1.349 1.348,-1.349l3.086,0c3.359,0 6.092,-2.731 6.092,-6.091l0,-13.259c0,-3.358 -2.732,-6.091 -6.092,-6.091l-4.367,0l0.387,-2.698l3.98,0c4.846,0 8.789,3.942 8.789,8.789l0,13.26z"/>
     <path id="svg_16" fill="#594A42" d="m1467.494,-456.17c2.695,0 4.889,-2.193 4.889,-4.891c0,-2.696 -2.193,-4.89 -4.889,-4.89c-2.697,0 -4.891,2.193 -4.891,4.89c0.001,2.698 2.194,4.891 4.891,4.891zm0,-8.432c1.951,0 3.539,1.589 3.539,3.541c0,1.953 -1.588,3.541 -3.539,3.541c-1.953,0 -3.541,-1.588 -3.541,-3.541c0,-1.952 1.588,-3.541 3.541,-3.541z"/>
     <path id="svg_17" fill="#594A42" d="m1467.494,-458.588c1.363,0 2.473,-1.108 2.473,-2.473s-1.109,-2.474 -2.473,-2.474c-1.365,0 -2.475,1.109 -2.475,2.474s1.11,2.473 2.475,2.473zm0,-4.271c0.99,0 1.799,0.806 1.799,1.799c0,0.992 -0.809,1.798 -1.799,1.798c-0.992,0 -1.799,-0.806 -1.799,-1.798c0,-0.994 0.807,-1.799 1.799,-1.799z"/>
    </g>
   </g>
   <path id="svg_18" fill="#594A42" d="m1175.143,-498.91l0,0c3.497,0 6.342,2.778 6.342,6.194l0,2.412c0,3.415 -2.845,6.195 -6.342,6.195l0,0c-0.551,0 -0.995,0.435 -0.995,0.971c0,0.538 0.444,0.973 0.995,0.973c4.594,0 8.332,-3.65 8.332,-8.139l0,-2.412c0,-4.487 -3.738,-8.139 -8.332,-8.139c-0.551,0 -0.995,0.436 -0.995,0.972c-0.001,0.537 0.444,0.973 0.995,0.973z"/>
   <path id="svg_19" fill="#594A42" d="m1182.381,-475.531l-13.895,0c3.178,-2.876 5.125,-6.907 5.371,-11.186c0.443,-0.014 0.873,-0.097 1.285,-0.222c2.003,-0.608 3.515,-2.444 3.515,-4.571s-1.512,-3.963 -3.515,-4.572c-0.404,-0.122 -0.823,-0.201 -1.258,-0.218l0,-10.452c0,-0.604 -0.49,-1.094 -1.094,-1.094l-40.52,0c-0.604,0 -1.094,0.49 -1.094,1.094l0,19.111c0,4.618 1.993,9.027 5.399,12.109l-13.896,0c-0.604,0 -1.094,0.489 -1.094,1.094c0,6.565 5.484,6.565 9.891,6.565l40.424,-0.003l1.682,0.003c4.406,0 9.891,0 9.891,-6.565c0.002,-0.604 -0.489,-1.093 -1.092,-1.093zm-8.496,-18.819c0.451,0.025 0.878,0.148 1.258,0.357c0.896,0.495 1.525,1.428 1.525,2.483s-0.629,1.988 -1.525,2.482c-0.38,0.209 -0.807,0.332 -1.258,0.357l0,-5.679zm-40.52,-11.308l38.332,0l0,2.436l-38.332,0l0,-2.436zm5.862,29.47c-3.67,-2.664 -5.861,-6.945 -5.861,-11.453l0,-14.124l38.332,0l0,14.124c0,4.508 -2.191,8.789 -5.86,11.453c-0.228,0.165 -0.368,0.401 -0.423,0.656l-25.766,0c-0.054,-0.254 -0.196,-0.49 -0.422,-0.656zm34.357,6.129l-40.424,-0.003l-1.682,0.003c-4.816,0 -7.199,-0.335 -7.631,-3.285l57.367,0c-0.43,2.95 -2.814,3.285 -7.63,3.285z"/>
   <path id="svg_20" fill="#E5DFDA" d="m1384.16,-607.217l-4.038,-0.09c0.075,0.06 0.156,0.107 0.243,0.145l4.348,0.096c-0.193,0 -0.385,-0.053 -0.553,-0.151z"/>
   <path id="svg_21" fill="#594637" d="m1389.02,-579.861c0.402,0 0.729,-0.326 0.729,-0.729l0,-15.464c0,-0.403 -0.326,-0.729 -0.729,-0.729l-43.252,0c-0.404,0 -0.729,0.327 -0.729,0.729l0,15.464c0,0.403 0.325,0.729 0.729,0.729l43.252,0zm-42.524,-15.465l41.793,0l0,14.006l-41.793,0l0,-14.006z"/>
   <path id="svg_22" fill="#594637" d="m1367.393,-592.592c-2.545,0 -4.617,2.072 -4.617,4.617c0,2.546 2.072,4.617 4.617,4.617c2.546,0 4.617,-2.07 4.617,-4.617c0,-2.546 -2.072,-4.617 -4.617,-4.617zm0,7.776c-1.742,0 -3.16,-1.416 -3.16,-3.159c0,-1.742 1.418,-3.159 3.16,-3.159s3.158,1.417 3.158,3.159c0,1.743 -1.416,3.159 -3.158,3.159z"/>
   <path id="svg_23" fill="#594637" d="m1399.072,-648.447c-2.211,0 -4.01,1.799 -4.01,4.01l0,11.976c0,1.522 0.854,2.85 2.105,3.528c0.254,0.138 0.525,0.246 0.811,0.326l0,1.127l-5.328,0l-8.019,0c-2.265,0 -4.392,0.881 -5.992,2.482l-2.603,2.603c-0.143,0.142 -0.291,0.276 -0.443,0.403c-1.125,0.931 -2.523,1.438 -4.002,1.438l-0.469,0l-1.553,0l0,-1c0,-0.989 -0.801,-1.791 -1.79,-1.791s-1.79,0.802 -1.79,1.791l0,4.592c-5.318,0.464 -10.113,3.54 -12.736,8.271c-0.131,0.235 -0.16,0.496 -0.111,0.74l-16.621,0c-1.557,0 -2.824,1.267 -2.824,2.823l0,2.223c0,1.557 1.268,2.823 2.824,2.823l1.709,0l0,22.253c0,0.604 0.49,1.093 1.095,1.093c0.603,0 1.093,-0.489 1.093,-1.093l0,-22.253l53.949,0l0,24.589l-57.846,0c-1.557,0 -2.824,1.267 -2.824,2.824l0,2.222c0,1.557 1.268,2.824 2.824,2.824l61.742,0c1.559,0 2.824,-1.267 2.824,-2.824l0,-2.222c0,-1.557 -1.266,-2.824 -2.824,-2.824l-1.709,0l0,-24.589l1.709,0c1.559,0 2.824,-1.267 2.824,-2.823l0,-2.223c0,-1.557 -1.266,-2.823 -2.824,-2.823l-16.621,0c0.049,-0.244 0.019,-0.505 -0.113,-0.74c-2.493,-4.5 -6.951,-7.509 -11.959,-8.192l0,-1.485l2.021,0c2.264,0 4.391,-0.881 5.992,-2.481l2.602,-2.603c0.01,-0.01 0.021,-0.019 0.031,-0.029c1.184,-1.168 2.75,-1.813 4.415,-1.813l1.221,0l13.22,0c0.604,0 1.092,-0.489 1.092,-1.093l0,-2.221c1.682,-0.478 2.916,-2.022 2.916,-3.854l0,-11.976c0,-2.21 -1.799,-4.009 -4.008,-4.009zm-0.172,75.78l0,2.222c0,0.352 -0.285,0.637 -0.637,0.637l-61.742,0c-0.352,0 -0.637,-0.285 -0.637,-0.637l0,-2.222c0,-0.352 0.285,-0.637 0.637,-0.637l61.742,0c0.352,0 0.637,0.285 0.637,0.637zm0,-32.46l0,2.223c0,0.351 -0.285,0.636 -0.637,0.636l-61.742,0c-0.352,0 -0.637,-0.285 -0.637,-0.636l0,-2.223c0,-0.351 0.285,-0.636 0.637,-0.636l61.742,0c0.352,0 0.637,0.285 0.637,0.636zm-19.599,-3.033c0.042,0.069 0.083,0.141 0.125,0.21l-24.068,0c0.043,-0.069 0.084,-0.141 0.127,-0.21c2.536,-4.135 7.04,-6.683 11.908,-6.683c4.869,0 9.373,2.548 11.908,6.683zm21.594,-24.301c0,1.005 -0.818,1.823 -1.822,1.823c-1.006,0 -1.824,-0.818 -1.824,-1.823l0,-11.976c0,-1.005 0.818,-1.822 1.824,-1.822c1.004,0 1.822,0.817 1.822,1.822l0,11.976z"/>
   <g id="svg_24">
    <g id="svg_25">
     <path id="svg_26" fill="#594A42" d="m1269.759,-568.359l-5.107,0c-0.201,0 -0.364,0.163 -0.364,0.365c0,0.201 0.163,0.364 0.364,0.364l5.107,0c0.202,0 0.364,-0.163 0.364,-0.364c0,-0.203 -0.162,-0.365 -0.364,-0.365z"/>
     <path id="svg_27" fill="#594A42" d="m1261.413,-563.244c0,-0.201 -0.163,-0.364 -0.364,-0.364l-1.34,0c-0.201,0 -0.365,0.163 -0.365,0.364c0,0.202 0.164,0.365 0.365,0.365l1.34,0c0.201,0 0.364,-0.163 0.364,-0.365z"/>
     <path id="svg_28" fill="#594A42" d="m1253.02,-563.402c0,-0.201 -0.162,-0.365 -0.363,-0.365l-1.34,0c-0.202,0 -0.365,0.165 -0.365,0.365c0,0.201 0.163,0.364 0.365,0.364l1.34,0c0.2,0 0.363,-0.163 0.363,-0.364z"/>
     <path id="svg_29" fill="#594A42" d="m1262.633,-570.6l2.256,0c0.201,0 0.365,-0.163 0.365,-0.365c0,-0.201 -0.164,-0.364 -0.365,-0.364l-2.256,0c-0.202,0 -0.365,0.163 -0.365,0.364c0,0.203 0.163,0.365 0.365,0.365z"/>
     <path id="svg_30" fill="#594A42" d="m1272.016,-572.397l-2.257,0c-0.201,0 -0.364,0.163 -0.364,0.364c0,0.203 0.163,0.365 0.364,0.365l2.257,0c0.201,0 0.365,-0.163 0.365,-0.365c0,-0.201 -0.164,-0.364 -0.365,-0.364z"/>
     <path id="svg_31" fill="#594A42" d="m1247.549,-560.401l-2.258,0c-0.201,0 -0.364,0.163 -0.364,0.364c0,0.202 0.163,0.365 0.364,0.365l2.258,0c0.201,0 0.363,-0.163 0.363,-0.365c0,-0.202 -0.162,-0.364 -0.363,-0.364z"/>
     <path id="svg_32" fill="#594A42" d="m1241.927,-560.283l-2.257,0c-0.201,0 -0.365,0.164 -0.365,0.365c0,0.201 0.164,0.365 0.365,0.365l2.257,0c0.202,0 0.364,-0.164 0.364,-0.365c0,-0.201 -0.162,-0.365 -0.364,-0.365z"/>
     <path id="svg_33" fill="#594A42" d="m1250.279,-566.339l-2.256,0c-0.202,0 -0.365,0.163 -0.365,0.364c0,0.202 0.163,0.365 0.365,0.365l2.256,0c0.202,0 0.365,-0.163 0.365,-0.365c0.001,-0.202 -0.163,-0.364 -0.365,-0.364z"/>
     <path id="svg_34" fill="#594A42" d="m1267.146,-564.203l-2.258,0c-0.201,0 -0.363,0.164 -0.363,0.365c0,0.201 0.162,0.365 0.363,0.365l2.258,0c0.201,0 0.364,-0.165 0.364,-0.365c0.001,-0.201 -0.162,-0.365 -0.364,-0.365z"/>
     <path id="svg_35" fill="#594A42" d="m1262.751,-560.757l-2.257,0c-0.201,0 -0.364,0.163 -0.364,0.364c0,0.202 0.163,0.365 0.364,0.365l2.257,0c0.202,0 0.364,-0.163 0.364,-0.365c0,-0.201 -0.162,-0.364 -0.364,-0.364z"/>
     <path id="svg_36" fill="#594A42" d="m1228.545,-563.846l-2.257,0c-0.202,0 -0.364,0.163 -0.364,0.364c0,0.202 0.162,0.365 0.364,0.365l2.257,0c0.201,0 0.365,-0.163 0.365,-0.365c0,-0.201 -0.164,-0.364 -0.365,-0.364z"/>
     <path id="svg_37" fill="#594A42" d="m1234.602,-561.827l-2.256,0c-0.201,0 -0.365,0.163 -0.365,0.365c0,0.201 0.164,0.364 0.365,0.364l2.256,0c0.202,0 0.365,-0.163 0.365,-0.364c0,-0.202 -0.163,-0.365 -0.365,-0.365z"/>
     <path id="svg_38" fill="#594A42" d="m1258.594,-566.102l-3.682,0c-0.201,0 -0.365,0.163 -0.365,0.364c0,0.203 0.164,0.365 0.365,0.365l3.682,0c0.201,0 0.365,-0.163 0.365,-0.365c0,-0.201 -0.164,-0.364 -0.365,-0.364z"/>
     <path id="svg_39" fill="#594A42" d="m1266.434,-574.4l3.682,0c0.201,0 0.363,-0.163 0.363,-0.364c0,-0.203 -0.162,-0.365 -0.363,-0.365l-3.682,0c-0.201,0 -0.365,0.163 -0.365,0.365c-0.001,0.201 0.163,0.364 0.365,0.364z"/>
     <path id="svg_40" fill="#594A42" d="m1256.574,-560.877l-3.682,0c-0.201,0 -0.364,0.163 -0.364,0.365c0,0.201 0.163,0.364 0.364,0.364l3.682,0c0.202,0 0.365,-0.163 0.365,-0.364c0,-0.202 -0.163,-0.365 -0.365,-0.365z"/>
     <path id="svg_41" fill="#594A42" d="m1241.49,-562.879l3.684,0c0.201,0 0.363,-0.163 0.363,-0.365c0,-0.201 -0.162,-0.364 -0.363,-0.364l-3.684,0c-0.201,0 -0.363,0.163 -0.363,0.364c0,0.202 0.162,0.365 0.363,0.365z"/>
     <g id="svg_42">
      <path id="svg_43" fill="none" d="m1221.776,-564.249c2.845,4.283 7.613,6.842 12.757,6.842l24.953,0c5.143,0 9.911,-2.559 12.755,-6.842c2.45,-3.691 3.161,-8.199 2.036,-12.408l-54.537,0c-1.125,4.209 -0.414,8.717 2.036,12.408z"/>
      <path id="svg_44" fill="none" d="m1228.86,-593.838l-8.439,15.177c-0.177,0.419 -0.327,0.846 -0.464,1.275l54.104,0c-0.137,-0.429 -0.287,-0.855 -0.464,-1.275l-8.438,-15.177l-36.299,0z"/>
      <path id="svg_45" fill="none" d="m1264.967,-623.857l8.096,-14.698c0.189,-0.477 0.136,-0.994 -0.149,-1.423c-0.29,-0.44 -0.76,-0.691 -1.286,-0.691l-49.235,0c-0.526,0 -0.995,0.251 -1.286,0.69c-0.285,0.43 -0.339,0.947 -0.15,1.423l8.097,14.698l35.913,0l0,0.001z"/>
      <path id="svg_46" fill="none" d="m1277.887,-596.97c0.166,-0.033 0.317,-0.098 0.458,-0.177c0.464,-0.261 0.769,-0.739 0.801,-1.275c0.009,-0.132 0.006,-0.266 -0.021,-0.401c-0.146,-0.735 -3.39,-3.294 -4.138,-3.294c-0.102,0 -0.205,0.01 -0.309,0.03c-0.26,0.051 -0.486,0.169 -0.678,0.326c-0.402,0.326 -0.629,0.835 -0.575,1.375c0.005,0.051 0.005,0.102 0.015,0.153c0.166,0.834 3.578,3.437 4.447,3.263z"/>
      <polyline id="svg_47" points="1261.822,-609.469 1261.873,-609.588 1261.873,-611.021 1261.873,-609.588 1267.418,-622.399       1266.681,-622.399 1264.232,-622.399 1229.785,-622.399 1227.338,-622.399 1226.6,-622.399 1232.195,-609.469     " fill="none"/>
      <path id="svg_48" fill="none" d="m1275.5,-592.774c-0.131,0 -0.254,0.021 -0.375,0.05c-0.504,0.124 -0.91,0.488 -1.094,0.966c-0.066,0.174 -0.107,0.362 -0.107,0.56c0,0.869 2.12,3.149 2.989,3.149c0.175,0 0.341,-0.035 0.499,-0.088c0.487,-0.164 0.865,-0.558 1.008,-1.055c0.041,-0.138 0.068,-0.281 0.068,-0.432c0,-0.869 -2.121,-3.15 -2.988,-3.15z"/>
      <path id="svg_49" fill="#594A42" d="m1279.262,-588.726c-0.066,-0.024 -0.133,-0.061 -0.198,-0.092c0.095,-0.251 0.153,-0.521 0.153,-0.806c0,-1.271 -2.447,-3.879 -3.717,-3.879c-0.294,0 -0.572,0.061 -0.832,0.161c-1.239,-1.74 -2.503,-3.984 -3.744,-6.192c-1.097,-1.952 -2.168,-3.854 -3.244,-5.474c0.555,0.454 1.112,0.927 1.666,1.398c1.15,0.979 2.273,1.933 3.369,2.728c-0.039,0.256 -0.044,0.522 0.01,0.792c0.215,1.074 3.758,3.881 4.853,3.881c0.148,0 0.3,-0.014 0.452,-0.045c0.475,-0.095 0.885,-0.331 1.199,-0.655c0.189,0.035 0.378,0.062 0.564,0.072c0.015,0.001 0.029,0.001 0.043,0.001c0.383,0 0.705,-0.299 0.727,-0.687c0.023,-0.401 -0.283,-0.747 -0.686,-0.77c-0.004,0 -0.01,-0.001 -0.016,-0.002c0.021,-0.219 0.023,-0.443 -0.022,-0.671c-0.243,-1.22 -4.036,-4.09 -5.304,-3.836c-0.449,0.089 -0.838,0.307 -1.145,0.603c-1.016,-0.75 -2.064,-1.642 -3.101,-2.522c-2.317,-1.971 -4.527,-3.847 -6.61,-4.503c-0.104,-0.053 -0.209,-0.097 -0.314,-0.14l5.831,-13.474c0.098,-0.226 0.075,-0.485 -0.06,-0.69c-0.135,-0.205 -0.363,-0.329 -0.609,-0.329l-1.113,0l7.621,-13.751c0.011,-0.022 0.021,-0.045 0.029,-0.067c0.488,-1.155 0.364,-2.467 -0.329,-3.511c-0.693,-1.045 -1.855,-1.668 -3.108,-1.668l-49.235,0c-1.253,0 -2.415,0.623 -3.108,1.667c-0.693,1.043 -0.817,2.357 -0.331,3.512c0.011,0.022 0.021,0.045 0.031,0.067l7.62,13.751l-1.113,0c-0.246,0 -0.475,0.124 -0.609,0.329c-0.135,0.205 -0.158,0.464 -0.061,0.69l6.055,13.991l-6.055,13.991c-0.098,0.225 -0.074,0.484 0.061,0.689s0.363,0.329 0.609,0.329l0.996,0l-8.082,14.329c-2.28,5.417 -1.701,11.573 1.551,16.47c3.25,4.895 8.7,7.819 14.578,7.819l24.953,0c5.877,0 11.326,-2.924 14.576,-7.819c3.252,-4.897 3.831,-11.053 1.551,-16.47l-8.082,-14.329l0.996,0c0.246,0 0.475,-0.124 0.609,-0.329s0.157,-0.464 0.06,-0.689l-5.446,-12.588c1.9,1.511 3.93,5.114 5.902,8.625c1.317,2.343 2.598,4.616 3.893,6.413c-0.218,0.353 -0.35,0.765 -0.35,1.208c0,1.271 2.447,3.878 3.718,3.878c0.44,0 0.849,-0.13 1.2,-0.346c0.215,0.122 0.43,0.231 0.646,0.311c0.083,0.03 0.168,0.043 0.252,0.043c0.296,0 0.576,-0.184 0.684,-0.478c0.138,-0.379 -0.056,-0.797 -0.434,-0.936zm-5.045,-12.824c0.174,-0.141 0.379,-0.248 0.613,-0.295c0.094,-0.019 0.188,-0.027 0.28,-0.027c0.677,0 3.61,2.315 3.743,2.981c0.025,0.122 0.027,0.244 0.02,0.363c-0.029,0.485 -0.305,0.917 -0.725,1.153c-0.127,0.072 -0.264,0.13 -0.414,0.16c-0.786,0.157 -3.873,-2.197 -4.024,-2.953c-0.009,-0.046 -0.009,-0.092 -0.013,-0.139c-0.049,-0.487 0.157,-0.949 0.52,-1.243zm-53.262,-37.005c-0.188,-0.477 -0.135,-0.994 0.15,-1.423c0.291,-0.439 0.76,-0.69 1.286,-0.69l49.235,0c0.526,0 0.996,0.251 1.286,0.691c0.285,0.429 0.339,0.946 0.149,1.423l-8.096,14.698l-35.915,0l-8.095,-14.699zm51.286,74.306c-2.844,4.283 -7.612,6.842 -12.755,6.842l-24.953,0c-5.144,0 -9.912,-2.559 -12.757,-6.842c-2.45,-3.691 -3.161,-8.199 -2.036,-12.408l54.537,0c1.125,4.209 0.414,8.717 -2.036,12.408zm1.356,-14.412c0.177,0.419 0.327,0.846 0.464,1.275l-54.104,0c0.137,-0.429 0.287,-0.855 0.464,-1.275l8.439,-15.177l36.298,0l8.439,15.177zm-41.402,-30.808l-5.596,-12.931l0.738,0l2.447,0l34.447,0l2.448,0l0.737,0l-5.545,12.812l0,1.577l0.043,0l5.502,12.715l-0.501,0l-2.373,0l-35.069,0l-2.374,0l-0.501,0l5.502,-12.715l20.83,0l0,-1.577l-20.735,0.119zm45.951,20.125c-0.126,0.435 -0.456,0.78 -0.883,0.924c-0.139,0.046 -0.284,0.078 -0.438,0.078c-0.761,0 -2.618,-1.998 -2.618,-2.759c0,-0.173 0.035,-0.337 0.094,-0.49c0.16,-0.419 0.518,-0.738 0.959,-0.846c0.105,-0.025 0.214,-0.043 0.327,-0.043c0.761,0 2.618,1.999 2.618,2.759c0,0.131 -0.025,0.257 -0.059,0.377z"/>
     </g>
    </g>
   </g>
   <g id="svg_50">
    <g id="svg_51">
     <path id="svg_52" fill="none" d="m1273.6,-496.438c-0.034,0 -0.066,0.008 -0.1,0.011c0.115,0.849 0.181,1.713 0.181,2.593s-0.065,1.744 -0.181,2.593c0.033,0.001 0.065,0.01 0.1,0.01l6.051,0c1.07,0 1.943,-0.872 1.943,-1.944l0,-1.318c0,-1.071 -0.873,-1.943 -1.943,-1.943l-6.051,0l0,-0.002z"/>
     <path id="svg_53" fill="none" d="m1254.547,-484.796c-4.983,0 -9.038,-4.055 -9.038,-9.038c0,-0.403 -0.326,-0.729 -0.729,-0.729c-0.402,0 -0.729,0.326 -0.729,0.729c0,5.787 4.709,10.496 10.496,10.496c0.404,0 0.729,-0.325 0.729,-0.729s-0.325,-0.729 -0.729,-0.729z"/>
     <path id="svg_54" fill="none" d="m1271.037,-497.728c-1.766,-7.474 -8.485,-13.053 -16.49,-13.053c-9.344,0 -16.945,7.603 -16.945,16.946s7.602,16.946 16.945,16.946c8.005,0 14.727,-5.581 16.49,-13.053c0.1,-0.424 0.188,-0.852 0.255,-1.286c0.132,-0.85 0.202,-1.721 0.202,-2.607s-0.07,-1.758 -0.202,-2.608c-0.067,-0.435 -0.155,-0.863 -0.255,-1.285zm-16.49,17.093c-7.289,0 -13.199,-5.909 -13.199,-13.199s5.91,-13.199 13.199,-13.199c7.291,0 13.2,5.909 13.2,13.199s-5.909,13.199 -13.2,13.199z"/>
     <path id="svg_55" fill="#594A42" d="m1273.6,-498.625c-0.176,0 -0.348,0.015 -0.518,0.037c-2.119,-8.258 -9.625,-14.379 -18.535,-14.379c-10.549,0 -19.133,8.583 -19.133,19.133c0,10.549 8.584,19.133 19.133,19.133c8.91,0 16.416,-6.121 18.535,-14.379c0.17,0.021 0.342,0.035 0.518,0.035l6.051,0c0.704,0 1.365,-0.182 1.946,-0.494c0.826,-0.582 1.854,-1.803 1.854,-4.296c0,-2.58 -0.861,-3.669 -1.861,-4.298c-0.58,-0.312 -1.238,-0.492 -1.939,-0.492l-6.051,0zm-2.308,7.398c-0.067,0.435 -0.155,0.862 -0.255,1.286c-1.764,7.472 -8.485,13.053 -16.49,13.053c-9.344,0 -16.945,-7.603 -16.945,-16.946s7.602,-16.946 16.945,-16.946c8.005,0 14.725,5.579 16.49,13.053c0.1,0.422 0.188,0.85 0.255,1.285c0.132,0.851 0.202,1.722 0.202,2.608s-0.07,1.758 -0.202,2.607zm10.302,-3.267l0,1.318c0,1.072 -0.873,1.944 -1.943,1.944l-6.051,0c-0.034,0 -0.066,-0.009 -0.1,-0.01c0.115,-0.849 0.181,-1.713 0.181,-2.593s-0.065,-1.744 -0.181,-2.593c0.033,-0.003 0.065,-0.011 0.1,-0.011l6.051,0c1.07,0.001 1.943,0.874 1.943,1.945z"/>
     <path id="svg_56" fill="#594A42" d="m1267.747,-493.835c0,-7.29 -5.909,-13.199 -13.2,-13.199c-7.289,0 -13.199,5.909 -13.199,13.199s5.91,13.199 13.199,13.199c7.291,0 13.2,-5.909 13.2,-13.199zm-12.471,-9.768c0,0.403 -0.325,0.729 -0.729,0.729c-4.983,0 -9.038,4.055 -9.038,9.038c0,0.403 -0.326,0.729 -0.729,0.729c-0.402,0 -0.729,-0.326 -0.729,-0.729c0,-5.787 4.709,-10.496 10.496,-10.496c0.404,0.001 0.729,0.326 0.729,0.729z"/>
     <g id="svg_57">
      <path id="svg_58" fill="none" d="m1225.625,-506.3c-1.656,3.826 -2.578,8.04 -2.578,12.466c0,6.327 1.882,12.22 5.105,17.162l0,-27.894c-1.013,-0.379 -1.855,-0.968 -2.527,-1.734z"/>
      <path id="svg_59" fill="none" d="m1233.742,-504.404l0,34.192c5.553,4.897 12.836,7.878 20.805,7.878c17.37,0 31.501,-14.131 31.501,-31.5c0,-17.37 -14.131,-31.5 -31.501,-31.5c-6.565,0 -12.666,2.022 -17.719,5.472c1.16,2.413 1.773,5.359 1.773,7.79c0.001,3.997 -1.757,6.741 -4.859,7.668z"/>
      <path id="svg_60" fill="none" d="m1230.34,-470.206l0,3.308c0,0.334 0.273,0.606 0.607,0.606s0.607,-0.272 0.607,-0.606l0,-2.124c-0.415,-0.383 -0.82,-0.779 -1.214,-1.184z"/>
      <path id="svg_61" fill="none" d="m1232.461,-506.347c2.624,-0.455 3.953,-2.382 3.953,-5.727c0,-2.157 -0.535,-4.533 -1.391,-6.453c-3.412,2.703 -6.252,6.092 -8.309,9.962c0.587,1.091 1.512,1.813 2.793,2.13c0.488,0.12 0.832,0.559 0.832,1.062l0,31.668c0.391,0.469 0.798,0.923 1.215,1.369l0,-32.934c0.001,-0.532 0.384,-0.986 0.907,-1.077z"/>
      <path id="svg_62" fill="#594A42" d="m1254.547,-527.685c-7.004,0 -13.517,2.138 -18.922,5.795c0.453,0.604 0.851,1.293 1.203,2.027c5.053,-3.45 11.153,-5.472 17.719,-5.472c17.37,0 31.501,14.13 31.501,31.5c0,17.369 -14.131,31.5 -31.501,31.5c-7.969,0 -15.252,-2.98 -20.805,-7.878l0,3.05c5.744,4.491 12.965,7.178 20.805,7.178c18.666,0 33.852,-15.187 33.852,-33.851c-0.001,-18.664 -15.186,-33.849 -33.852,-33.849z"/>
      <path id="svg_63" fill="#594A42" d="m1236.828,-519.863c-0.353,-0.733 -0.75,-1.422 -1.203,-2.027c-1.162,-1.55 -2.649,-2.577 -4.436,-2.577c-4.771,0 -7.41,7.328 -7.41,12.393c0,1.188 0.166,2.245 0.457,3.192c-2.261,4.536 -3.54,9.644 -3.54,15.047c0,8.001 2.797,15.359 7.456,21.159l0,5.777c0,1.54 1.254,2.794 2.795,2.794c1.54,0 2.795,-1.254 2.795,-2.794l0,-0.264l0,-3.05l0,-34.192c3.102,-0.927 4.859,-3.671 4.859,-7.669c0.001,-2.43 -0.613,-5.376 -1.773,-7.789zm-8.676,43.191c-3.224,-4.941 -5.105,-10.834 -5.105,-17.162c0,-4.427 0.922,-8.641 2.578,-12.466c0.672,0.766 1.514,1.355 2.527,1.734l0,27.894zm4.309,-29.675c-0.523,0.091 -0.906,0.545 -0.906,1.077l0,32.934l0,3.314l0,2.124c0,0.334 -0.273,0.606 -0.607,0.606s-0.607,-0.272 -0.607,-0.606l0,-3.308l0,-3.499l0,-31.668c0,-0.503 -0.344,-0.941 -0.832,-1.062c-1.281,-0.317 -2.206,-1.039 -2.793,-2.13c-0.475,-0.882 -0.729,-2.006 -0.742,-3.384c-0.001,-0.043 -0.007,-0.082 -0.007,-0.125c0,-4.594 2.41,-10.206 5.224,-10.206c0.957,0 1.863,0.659 2.648,1.696c0.439,0.581 0.838,1.279 1.186,2.057c0.855,1.92 1.391,4.296 1.391,6.453c-0.002,3.345 -1.331,5.272 -3.955,5.727z"/>
     </g>
    </g>
   </g>
   <g id="svg_64">
    <g id="svg_65">
     <path id="svg_66" fill="#594637" d="m1388.582,-407.967l-39.177,0l0,-7.07l39.177,0l0,7.07zm-37.092,0.915l35.007,0l0,-5.9l-35.007,0l0,5.9z"/>
    </g>
    <path id="svg_67" fill="#594637" d="m1394.443,-345.104l-51.352,0l1.08,-57.387l6.546,-6.441l37.573,0l5.074,6.52l1.079,57.308zm-49.226,-2.084l47.104,0l-1.027,-54.49l-4.021,-5.167l-35.699,0l-5.331,5.246l-1.026,54.411z"/>
    <path id="svg_68" fill="#594637" d="m1369.463,-365.331c-6.889,0 -12.492,-5.605 -12.492,-12.494c0,-6.889 5.604,-12.493 12.492,-12.493c6.89,0 12.494,5.604 12.494,12.493c0,6.889 -5.604,12.494 -12.494,12.494zm0,-23.487c-6.062,0 -10.992,4.932 -10.992,10.993c0,6.062 4.931,10.994 10.992,10.994c6.063,0 10.994,-4.932 10.994,-10.994c0,-6.062 -4.932,-10.993 -10.994,-10.993z"/>
    <rect id="svg_69" y="-402.697" x="1368.145" width="24.256" height="1.304" fill="#594637"/>
    <rect id="svg_70" y="-413.088" x="1354.658" width="1.303" height="3.346" fill="#594637"/>
    <rect id="svg_71" y="-413.088" x="1362.602" width="1.303" height="3.346" fill="#594637"/>
    <rect id="svg_72" y="-413.088" x="1370.545" width="1.303" height="3.346" fill="#594637"/>
    <rect id="svg_73" y="-413.088" x="1378.489" width="1.302" height="3.346" fill="#594637"/>
    <rect id="svg_74" y="-413.088" x="1382.461" width="1.303" height="3.346" fill="#594637"/>
    <rect id="svg_75" y="-413.088" x="1374.518" width="1.302" height="3.346" fill="#594637"/>
    <rect id="svg_76" y="-413.088" x="1366.574" width="1.302" height="3.346" fill="#594637"/>
    <rect id="svg_77" y="-413.088" x="1358.629" width="1.304" height="3.346" fill="#594637"/>
    <rect id="svg_78" y="-351.995" x="1344.154" width="37.053" height="1.303" fill="#594637"/>
    <rect id="svg_79" y="-351.995" x="1383.479" width="3.591" height="1.303" fill="#594637"/>
    <rect id="svg_80" y="-402.697" x="1358.225" width="7.646" height="1.304" fill="#594637"/>
   </g>
   <g id="svg_81">
    <g id="svg_82">
     <g id="svg_83">
      <rect id="svg_84" y="-418.001" x="1241.213" width="18.95" height="1.12" fill="none"/>
      <path id="svg_85" fill="none" d="m1235.633,-393.115l0.104,0.231l-0.016,0.252c0,0.012 -0.008,0.099 -0.024,0.257c-0.602,5.764 -3.422,34.833 -0.933,50.235l31.918,0c2.494,-15.434 -0.333,-44.493 -0.936,-50.254c-0.015,-0.144 -0.022,-0.223 -0.023,-0.233l-0.016,-0.255l0.104,-0.233c0.961,-2.159 1.547,-5.621 1.887,-8.967l-33.952,0c0.313,3.161 0.877,6.694 1.887,8.967z"/>
     </g>
     <g id="svg_86">
      <path id="svg_87" fill="#594637" d="m1250.984,-369.044c-7.996,0 -14.26,-3.661 -14.26,-8.335c0,-4.673 6.264,-8.334 14.26,-8.334c1.935,0 3.82,0.223 5.604,0.663c2.111,0.521 3.994,1.344 5.446,2.38c2.099,1.499 3.208,3.328 3.208,5.291c0,1.969 -1.115,3.803 -3.226,5.305c-1.44,1.024 -3.312,1.841 -5.409,2.362c-1.79,0.443 -3.681,0.668 -5.623,0.668zm0,-15.169c-6.917,0 -12.76,3.129 -12.76,6.834c0,3.705 5.843,6.835 12.76,6.835c1.819,0 3.59,-0.21 5.262,-0.625c1.918,-0.476 3.612,-1.211 4.901,-2.128c1.184,-0.842 2.595,-2.234 2.595,-4.082c0,-1.842 -1.402,-3.23 -2.579,-4.07c-1.299,-0.927 -3.006,-1.668 -4.935,-2.145c-1.665,-0.411 -3.43,-0.619 -5.244,-0.619z"/>
     </g>
    </g>
    <g id="svg_88">
     <path id="svg_89" fill="#594637" d="m1264.496,-353.15l-5.107,0c-0.201,0 -0.365,0.163 -0.365,0.365c0,0.2 0.164,0.363 0.365,0.363l5.107,0c0.201,0 0.364,-0.163 0.364,-0.363c0,-0.202 -0.163,-0.365 -0.364,-0.365z"/>
     <path id="svg_90" fill="#594637" d="m1256.15,-348.035c0,-0.201 -0.163,-0.364 -0.365,-0.364l-1.339,0c-0.202,0 -0.364,0.163 -0.364,0.364c0,0.202 0.162,0.365 0.364,0.365l1.339,0c0.202,0 0.365,-0.163 0.365,-0.365z"/>
     <path id="svg_91" fill="#594637" d="m1247.758,-348.193c0,-0.2 -0.164,-0.364 -0.365,-0.364l-1.34,0c-0.201,0 -0.364,0.164 -0.364,0.364c0,0.201 0.163,0.364 0.364,0.364l1.34,0c0.201,0 0.365,-0.163 0.365,-0.364z"/>
     <path id="svg_92" fill="#594637" d="m1257.369,-355.391l2.258,0c0.201,0 0.363,-0.163 0.363,-0.365c0,-0.201 -0.162,-0.363 -0.363,-0.363l-2.258,0c-0.201,0 -0.364,0.162 -0.364,0.363c0,0.202 0.163,0.365 0.364,0.365z"/>
     <path id="svg_93" fill="#594637" d="m1266.753,-357.188l-2.257,0c-0.201,0 -0.365,0.162 -0.365,0.363c0,0.202 0.164,0.365 0.365,0.365l2.257,0c0.202,0 0.364,-0.163 0.364,-0.365c0,-0.2 -0.162,-0.363 -0.364,-0.363z"/>
     <path id="svg_94" fill="#594637" d="m1242.285,-345.192l-2.257,0c-0.201,0 -0.364,0.162 -0.364,0.363c0,0.202 0.163,0.365 0.364,0.365l2.257,0c0.201,0 0.365,-0.163 0.365,-0.365c0,-0.201 -0.164,-0.363 -0.365,-0.363z"/>
     <path id="svg_95" fill="#594637" d="m1245.018,-351.131l-2.258,0c-0.201,0 -0.363,0.163 -0.363,0.364c0,0.202 0.162,0.365 0.363,0.365l2.258,0c0.201,0 0.364,-0.163 0.364,-0.365c0,-0.201 -0.163,-0.364 -0.364,-0.364z"/>
     <path id="svg_96" fill="#594637" d="m1261.883,-348.994l-2.256,0c-0.202,0 -0.365,0.165 -0.365,0.365c0,0.201 0.163,0.365 0.365,0.365l2.256,0c0.201,0 0.365,-0.164 0.365,-0.365c0,-0.2 -0.164,-0.365 -0.365,-0.365z"/>
     <path id="svg_97" fill="#594637" d="m1257.488,-345.549l-2.257,0c-0.201,0 -0.364,0.163 -0.364,0.364c0,0.202 0.163,0.365 0.364,0.365l2.257,0c0.201,0 0.364,-0.163 0.364,-0.365c0.001,-0.201 -0.163,-0.364 -0.364,-0.364z"/>
     <path id="svg_98" fill="#594637" d="m1253.331,-350.893l-3.683,0c-0.201,0 -0.363,0.162 -0.363,0.363c0,0.202 0.162,0.365 0.363,0.365l3.683,0c0.202,0 0.364,-0.163 0.364,-0.365c0,-0.2 -0.162,-0.363 -0.364,-0.363z"/>
     <path id="svg_99" fill="#594637" d="m1261.17,-359.191l3.682,0c0.202,0 0.365,-0.163 0.365,-0.364c0,-0.202 -0.163,-0.365 -0.365,-0.365l-3.682,0c-0.201,0 -0.363,0.163 -0.363,0.365c0,0.201 0.162,0.364 0.363,0.364z"/>
     <path id="svg_100" fill="#594637" d="m1251.313,-345.668l-3.683,0c-0.201,0 -0.364,0.163 -0.364,0.365c0,0.201 0.163,0.364 0.364,0.364l3.683,0c0.201,0 0.364,-0.163 0.364,-0.364c0,-0.202 -0.163,-0.365 -0.364,-0.365z"/>
     <path id="svg_101" fill="#594637" d="m1236.229,-347.67l3.682,0c0.201,0 0.365,-0.163 0.365,-0.365c0,-0.201 -0.164,-0.364 -0.365,-0.364l-3.682,0c-0.201,0 -0.365,0.163 -0.365,0.364c-0.001,0.202 0.163,0.365 0.365,0.365z"/>
    </g>
   </g>
   <g id="svg_102">
    <path id="svg_103" fill="#594637" d="m1478.184,-338.531l-17.016,0c-11.727,0 -22.16,-4.217 -22.16,-7.54c0,-1.609 2.256,-2.609 5.885,-2.609l49.564,0c1.666,0 5.537,0.255 5.537,2.609c0,1.676 -2.436,3.563 -6.52,5.048c-4.29,1.559 -10.007,2.492 -15.29,2.492zm-33.291,-9.107c-3.145,0 -4.844,0.807 -4.844,1.566c0,2.167 9.131,6.497 21.119,6.497l17.016,0c5.168,0 10.752,-0.908 14.936,-2.43c4.613,-1.678 5.832,-3.394 5.832,-4.067c0,-1.082 -2.256,-1.566 -4.494,-1.566l-49.565,0z"/>
    <path id="svg_104" fill="#594A42" d="m1470.102,-407.879c-6.035,0 -10.945,4.909 -10.945,10.945c0,6.035 4.91,10.945 10.945,10.945s10.945,-4.91 10.945,-10.945c0,-6.036 -4.91,-10.945 -10.945,-10.945zm0,20.819c-5.453,0 -9.873,-4.421 -9.873,-9.874c0,-5.454 4.42,-9.875 9.873,-9.875c5.455,0 9.875,4.421 9.875,9.875c0,5.454 -4.42,9.874 -9.875,9.874z"/>
    <path id="svg_105" fill="#594A42" d="m1470.102,-405.562c-4.758,0 -8.627,3.87 -8.627,8.628c0,4.756 3.869,8.627 8.627,8.627s8.629,-3.871 8.629,-8.627c-0.001,-4.757 -3.872,-8.628 -8.629,-8.628zm0,16.541c-4.369,0 -7.914,-3.542 -7.914,-7.913c0,-4.37 3.545,-7.915 7.914,-7.915c4.371,0 7.914,3.545 7.914,7.915c0,4.371 -3.543,7.913 -7.914,7.913z"/>
    <path id="svg_106" fill="#594A42" d="m1454.846,-393.118c-1.178,0 -2.137,0.959 -2.137,2.137c0,1.179 0.959,2.137 2.137,2.137s2.137,-0.958 2.137,-2.137c-0.001,-1.178 -0.96,-2.137 -2.137,-2.137zm0,3.559c-0.785,0 -1.422,-0.637 -1.422,-1.423s0.637,-1.423 1.422,-1.423s1.424,0.637 1.424,1.423s-0.639,1.423 -1.424,1.423z"/>
    <path id="svg_107" fill="#594A42" d="m1486.145,-393.118c-1.178,0 -2.137,0.959 -2.137,2.137c0,1.179 0.959,2.137 2.137,2.137c1.18,0 2.137,-0.958 2.137,-2.137c-0.001,-1.178 -0.958,-2.137 -2.137,-2.137z"/>
    <path id="svg_108" fill="#594A42" d="m1492.586,-399.945c0.422,-0.443 0.629,-1.075 0.506,-1.721c-0.143,-0.743 -0.732,-1.355 -1.465,-1.525c-0.15,-0.035 -0.307,-0.053 -0.457,-0.053c-1.08,0 -1.959,0.879 -1.959,1.959c0,0.516 0.199,0.991 0.537,1.344c-0.902,0.503 -1.516,1.465 -1.516,2.568c0,1.62 1.316,2.937 2.938,2.937c1.619,0 2.936,-1.316 2.936,-2.937c-0.001,-1.106 -0.616,-2.069 -1.52,-2.572zm-3.641,2.572c0,-0.84 0.467,-1.57 1.154,-1.949l0,1.771c0,0.59 0.48,1.07 1.07,1.07c0.588,0 1.068,-0.48 1.068,-1.07l0,-1.771c0.688,0.379 1.154,1.109 1.154,1.949c0,1.228 -0.996,2.223 -2.223,2.223c-1.227,0 -2.223,-0.996 -2.223,-2.223zm0.979,-3.912c0,-0.688 0.559,-1.245 1.246,-1.245c0.096,0 0.195,0.012 0.295,0.034c0.467,0.107 0.836,0.497 0.926,0.966c0.105,0.548 -0.152,1.038 -0.572,1.296c-0.092,0.056 -0.188,0.104 -0.293,0.136l0,0.174l0,0.359l0,2.015c0,0.197 -0.16,0.356 -0.355,0.356c-0.197,0 -0.355,-0.159 -0.355,-0.356l0,-2.015l0,-0.359l0,-0.174c-0.107,-0.031 -0.205,-0.08 -0.297,-0.136c-0.355,-0.219 -0.595,-0.604 -0.595,-1.051z"/>
    <path id="svg_109" fill="#594A42" d="m1452.131,-399.945c0.424,-0.443 0.631,-1.075 0.508,-1.721c-0.143,-0.743 -0.732,-1.355 -1.465,-1.525c-0.15,-0.035 -0.307,-0.053 -0.459,-0.053c-1.078,0 -1.957,0.879 -1.957,1.959c0,0.516 0.199,0.991 0.537,1.344c-0.902,0.503 -1.516,1.465 -1.516,2.568c0,1.62 1.316,2.937 2.936,2.937c1.621,0 2.938,-1.316 2.938,-2.937c-0.001,-1.106 -0.616,-2.069 -1.522,-2.572zm-3.639,2.572c0,-0.84 0.467,-1.57 1.154,-1.949l0,1.771c0,0.59 0.479,1.07 1.068,1.07s1.07,-0.48 1.07,-1.07l0,-1.771c0.688,0.379 1.154,1.109 1.154,1.949c0,1.228 -0.996,2.223 -2.225,2.223c-1.225,0 -2.221,-0.996 -2.221,-2.223zm0.979,-3.912c0,-0.688 0.557,-1.245 1.244,-1.245c0.098,0 0.197,0.012 0.297,0.034c0.465,0.107 0.834,0.497 0.926,0.966c0.105,0.548 -0.154,1.038 -0.572,1.296c-0.092,0.056 -0.189,0.104 -0.293,0.136l0,0.174l0,0.359l0,2.015c0,0.197 -0.16,0.356 -0.357,0.356c-0.195,0 -0.355,-0.159 -0.355,-0.356l0,-2.015l0,-0.359l0,-0.174c-0.105,-0.031 -0.203,-0.08 -0.295,-0.136c-0.357,-0.219 -0.595,-0.604 -0.595,-1.051z"/>
    <g id="svg_110">
     <path id="svg_111" fill="#594637" d="m1476.176,-397.033l-1.043,0c0,-2.704 -2.199,-4.903 -4.904,-4.903c-2.703,0 -4.902,2.199 -4.902,4.903l-1.043,0c0,-3.279 2.668,-5.946 5.945,-5.946c3.279,0 5.947,2.666 5.947,5.946z"/>
     <path id="svg_112" fill="#594637" d="m1470.229,-394.737c-1.24,0 -2.25,-1.011 -2.25,-2.253c0,-1.24 1.01,-2.25 2.25,-2.25c1.242,0 2.252,1.01 2.252,2.25c-0.001,1.242 -1.01,2.253 -2.252,2.253zm0,-3.461c-0.666,0 -1.207,0.542 -1.207,1.208c0,0.667 0.541,1.21 1.207,1.21c0.668,0 1.209,-0.543 1.209,-1.21c0,-0.666 -0.542,-1.208 -1.209,-1.208z"/>
     <rect id="svg_113" y="-400.317" x="1469.881" width="0.695" height="3.284" fill="#594637"/>
    </g>
    <g id="svg_114">
     <path id="svg_115" fill="none" d="m1448.539,-360.439c0,1.311 1.027,2.375 2.318,2.455l-1.059,-4.592c-0.747,0.425 -1.259,1.218 -1.259,2.137z"/>
    </g>
    <path id="svg_116" fill="#594637" d="m1507.717,-402.646l-0.895,0l0,-6.835c1.766,-0.825 2.996,-2.614 2.996,-4.689c0,-2.854 -2.324,-5.176 -5.178,-5.176c-2.855,0 -5.178,2.322 -5.178,5.176c0,2.15 1.318,3.998 3.188,4.779l0,6.745l-3.854,0c-7.553,-6.186 -19.672,-10.172 -27.018,-10.172l-3.129,0c-11.268,0 -33.787,9.379 -33.787,21.695c0,3.968 2.313,7.396 5.656,9.037l-12.748,0c-2.551,0 -3.932,1.38 -3.932,3.931s1.381,3.931 3.932,3.931l23.119,0c0.535,0.883 1.15,1.479 1.82,1.479l1.826,0c0.203,0.914 1.018,1.6 1.99,1.6l0.105,0c0.973,0 1.787,-0.686 1.99,-1.6l2.494,0c0.203,0.914 1.018,1.6 1.99,1.6l0.105,0c0.973,0 1.787,-0.686 1.988,-1.6l1.383,0c2.172,0 3.756,-6.239 3.975,-8.307l0.455,0l0,28.725c0.063,0.026 0.117,0.052 0.172,0.077l-4.951,0c0.656,-0.383 1.148,-1.025 1.324,-1.818l2.607,-12.18c0.174,-0.786 -0.014,-1.597 -0.518,-2.225c-0.504,-0.627 -1.256,-0.988 -2.061,-0.988l-14.846,0c-0.807,0 -1.557,0.361 -2.061,0.989c-0.504,0.627 -0.693,1.438 -0.52,2.22l0.277,1.297c-2.242,0.282 -3.984,2.197 -3.984,4.515c0,2.512 2.043,4.555 4.555,4.555c0.463,0 0.908,-0.07 1.33,-0.198l0.432,2.021c0.176,0.79 0.666,1.432 1.322,1.813l-10.758,0c-6.422,0 -8.709,2.949 -8.709,5.708c0,6.823 13.711,11.579 26.014,11.579l18.092,0c12.127,0 25.641,-4.756 25.641,-11.579c0,-1.716 -0.813,-5.708 -8.336,-5.708l-2.998,0c0.107,-0.025 0.213,-0.051 0.338,-0.077l0,-28.725l2.117,0c5.555,0 10.072,-4.519 10.072,-10.071c0,-0.73 -0.084,-1.45 -0.234,-2.159l2.385,0c0.543,0 0.984,-0.44 0.984,-0.984l0,-7.396c0.005,-0.544 -0.436,-0.985 -0.979,-0.985zm-56.608,40.818l0.559,2.616c-0.195,0.107 -0.418,0.172 -0.658,0.172c-0.771,0 -1.4,-0.627 -1.4,-1.399s0.629,-1.399 1.4,-1.399c0.035,-0.001 0.066,0.006 0.099,0.01zm-0.099,4.874c-1.922,0 -3.484,-1.564 -3.484,-3.485c0,-1.804 1.379,-3.292 3.139,-3.466l0.215,1.002c-1.301,0.069 -2.34,1.146 -2.34,2.464c0,1.363 1.107,2.471 2.471,2.471c0.314,0 0.613,-0.061 0.891,-0.168l0.213,0.999c-0.349,0.116 -0.719,0.183 -1.105,0.183zm0.75,-9.166c-0.098,-0.439 0.008,-0.892 0.289,-1.241c0.281,-0.352 0.699,-0.552 1.15,-0.552l13.932,0c0.449,0 0.869,0.2 1.148,0.552c0.281,0.35 0.387,0.802 0.289,1.244l-2.447,11.431c-0.166,0.75 -0.82,1.274 -1.59,1.274l-8.732,0c-0.77,0 -1.424,-0.524 -1.59,-1.272l-2.449,-11.436zm49.094,-48.05c0,-2.088 1.699,-3.786 3.787,-3.786s3.787,1.698 3.787,3.786c0,2.089 -1.699,3.788 -3.787,3.788s-3.787,-1.699 -3.787,-3.788zm4.578,5.111l0,6.413l-1.391,0l0,-6.384c0.197,0.022 0.396,0.037 0.6,0.037c0.269,0.001 0.533,-0.026 0.791,-0.066zm-77.33,33.457c-1.896,0 -2.765,-0.802 -2.765,-2.553c0,-1.75 0.869,-2.554 2.765,-2.554l20.267,0c0.129,1.082 0.692,3.363 1.543,5.106l-21.81,0l0,0.001zm28.531,3.314l-0.105,0c-0.576,0 -1.063,-0.37 -1.244,-0.885l2.594,0c-0.185,0.515 -0.671,0.885 -1.245,0.885zm6.58,0l-0.105,0c-0.576,0 -1.063,-0.37 -1.244,-0.885l2.594,0c-0.185,0.515 -0.671,0.885 -1.245,0.885zm3.371,-1.956l-1.404,0l-0.379,0l-0.375,0l-2.531,0l-0.375,0l-0.379,0l-2.541,0l-0.379,0l-0.375,0l-2.531,0l-0.375,0l-0.379,0l-1.85,0c-0.271,0 -0.887,-1.326 -1.578,-3.004l17.029,0c-0.691,1.678 -1.307,3.004 -1.578,3.004zm2.034,-4.214l-17.941,0c-0.39,-1.076 -0.677,-1.868 -0.81,-2.593l19.561,0c-0.134,0.725 -0.42,1.517 -0.81,2.593zm27.419,28.509c2.254,0 6.037,0.443 6.037,3.408c0,4.684 -11.563,9.279 -23.342,9.279l-18.092,0c-11.746,0 -23.713,-4.683 -23.713,-9.279c0,-2.134 2.396,-3.408 6.408,-3.408l52.702,0zm-18.555,-2.3l-4.18,0c0.055,-0.025 0.109,-0.051 0.172,-0.077l0,-28.725l3.992,0l0,28.725c0.001,0.027 0.011,0.051 0.016,0.077zm7.647,0l-6.963,0c0.004,-0.026 0.016,-0.05 0.016,-0.077l0,-28.725l6.932,0l0,28.725c-0.001,0.027 0.009,0.051 0.015,0.077zm5.803,0l-5.121,0c0.006,-0.026 0.016,-0.05 0.016,-0.077l0,-28.725l5.09,0l0,28.725c-0.001,0.027 0.011,0.051 0.015,0.077zm4.562,-30.887l-50.559,0c-4.404,0 -7.986,-3.583 -7.986,-7.986c0,-10.731 20.988,-19.61 31.701,-19.61l3.129,0c10.713,0 31.703,8.879 31.703,19.61c0,4.403 -3.584,7.986 -7.988,7.986zm11.756,-11.595l-2.338,0c-0.828,-2.313 -2.41,-4.483 -4.48,-6.464l6.818,0l0,6.464z"/>
   </g>
   <g id="svg_117">
    <path id="svg_118" fill="#594A42" d="m1133.972,-560.479c1.396,1.061 3.114,1.647 4.836,1.647l23.677,0c1.693,0 3.34,-0.533 4.634,-1.499c7.242,-5.408 11.382,-14.028 11.071,-23.059c-0.233,-6.833 -3.053,-13.103 -7.496,-17.839c8.637,0.389 15.52,7.512 15.52,16.244l0,3.056c0,1.982 1.326,3.803 3.27,4.193c0.289,0.058 0.574,0.085 0.853,0.085c2.276,0 4.123,-1.845 4.123,-4.123l0,-3.211c0,-13.535 -10.974,-24.508 -24.509,-24.508l-2.318,0l0,-6.333l-33.156,0c-0.745,0 -1.452,0.359 -1.891,0.961c-0.438,0.602 -0.564,1.384 -0.336,2.092l1.066,3.322c-3.086,0.404 -5.099,4.21 -2.131,7.525c-5.002,4.992 -8.103,11.891 -8.103,19.501c-0.001,8.681 3.969,16.681 10.89,21.946zm-2.616,-45.831c0.379,-1.007 1.343,-1.686 2.414,-1.719c0.026,-0.001 0.054,-0.006 0.081,-0.006l6.622,0l20.295,0l6.862,0l2.318,0c12.711,0 23.051,10.34 23.051,23.05l0,3.211c0,1.469 -1.195,2.665 -2.665,2.665c-0.187,0 -0.378,-0.02 -0.565,-0.058c-1.197,-0.239 -2.1,-1.427 -2.1,-2.763l0,-3.056c0,-9.771 -7.949,-17.721 -17.721,-17.721l-0.746,0l-3.404,0l-30.389,0l-2.96,0c-0.073,-0.074 -0.134,-0.15 -0.2,-0.226c-0.968,-1.097 -1.299,-2.297 -0.893,-3.377zm2.996,-7.267c0.029,-0.042 0.07,-0.062 0.123,-0.062l30.97,0l0,3.481l-30.061,0l-1.054,-3.284c-0.016,-0.048 -0.009,-0.094 0.022,-0.135zm-0.707,12.33l33.92,0c4.972,4.488 8.199,10.885 8.439,17.932c0.072,2.102 -0.12,4.18 -0.552,6.193l-49.625,0c-0.362,-1.722 -0.56,-3.495 -0.56,-5.302c0.001,-7.461 3.237,-14.177 8.378,-18.823zm41.63,24.853c-1.389,5.654 -4.688,10.742 -9.466,14.31c-0.919,0.686 -2.101,1.064 -3.325,1.064l-23.677,0c-1.247,0 -2.493,-0.426 -3.511,-1.201c-4.729,-3.596 -7.956,-8.578 -9.31,-14.173l49.289,0z"/>
    <path id="svg_119" fill="#594A42" d="m1148.195,-590.813l3.607,0c0.402,0 0.729,-0.326 0.729,-0.729c0,-0.403 -0.326,-0.729 -0.729,-0.729l-3.607,0c-0.402,0 -0.729,0.326 -0.729,0.729c0.001,0.402 0.327,0.729 0.729,0.729z"/>
    <path id="svg_120" fill="#594A42" d="m1144.588,-585.885l10.822,0c0.403,0 0.729,-0.326 0.729,-0.729c0,-0.403 -0.325,-0.729 -0.729,-0.729l-10.822,0c-0.403,0 -0.729,0.326 -0.729,0.729c0,0.403 0.326,0.729 0.729,0.729z"/>
    <path id="svg_121" fill="#594A42" d="m1151.803,-582.416l-3.607,0c-0.402,0 -0.729,0.327 -0.729,0.729c0,0.403 0.326,0.729 0.729,0.729l3.607,0c0.402,0 0.729,-0.326 0.729,-0.729c-0.001,-0.401 -0.327,-0.729 -0.729,-0.729z"/>
    <path id="svg_122" fill="#594A42" d="m1148.195,-571.102l3.607,0c0.402,0 0.729,-0.326 0.729,-0.729c0,-0.402 -0.326,-0.729 -0.729,-0.729l-3.607,0c-0.402,0 -0.729,0.327 -0.729,0.729c0.001,0.403 0.327,0.729 0.729,0.729z"/>
    <g id="svg_123">
     <path id="svg_124" fill="#594A42" d="m1140.788,-637.049c-0.342,0 -0.677,-0.168 -0.876,-0.477c-0.313,-0.483 -0.176,-1.129 0.309,-1.441c0.584,-0.378 1.18,-0.596 1.77,-0.646c0.568,-0.044 1.078,0.377 1.127,0.951c0.049,0.573 -0.377,1.078 -0.95,1.127c-0.241,0.021 -0.522,0.131 -0.813,0.319c-0.177,0.113 -0.373,0.167 -0.567,0.167z"/>
     <path id="svg_125" fill="#594A42" d="m1142.816,-624.164c-0.46,0 -0.881,-0.308 -1.006,-0.773c-0.227,-0.844 -0.742,-1.664 -1.168,-2.284c-0.325,-0.475 -0.204,-1.124 0.271,-1.45c0.475,-0.326 1.123,-0.205 1.449,0.271c0.519,0.757 1.154,1.773 1.461,2.924c0.149,0.556 -0.181,1.128 -0.737,1.277c-0.09,0.024 -0.18,0.035 -0.27,0.035zm-3.628,-6.326c-0.417,0 -0.81,-0.251 -0.971,-0.662c-0.378,-0.962 -0.569,-1.922 -0.569,-2.853c0,-0.156 0.005,-0.311 0.016,-0.467c0.041,-0.575 0.546,-1.009 1.113,-0.968c0.574,0.04 1.008,0.538 0.967,1.112c-0.007,0.107 -0.011,0.215 -0.011,0.322c0,0.669 0.144,1.372 0.425,2.09c0.211,0.536 -0.053,1.141 -0.589,1.352c-0.125,0.051 -0.255,0.074 -0.381,0.074z"/>
     <path id="svg_126" fill="#594A42" d="m1140.391,-619.59c-0.451,0 -0.867,-0.295 -1,-0.75c-0.162,-0.553 0.154,-1.132 0.707,-1.294c0.346,-0.102 0.652,-0.251 0.912,-0.446c0.461,-0.345 1.114,-0.251 1.459,0.21c0.346,0.461 0.252,1.115 -0.21,1.459c-0.459,0.343 -0.989,0.605 -1.575,0.777c-0.098,0.03 -0.197,0.044 -0.293,0.044z"/>
    </g>
    <path id="svg_127" fill="#594A42" d="m1149.804,-619.59c-0.451,0 -0.866,-0.294 -1.001,-0.749c-0.162,-0.553 0.155,-1.132 0.707,-1.294c1.084,-0.318 1.732,-1.077 1.825,-2.138c0.134,-1.521 -0.913,-2.963 -1.927,-4.358c-0.221,-0.304 -0.437,-0.603 -0.637,-0.895c-1.783,-2.606 -2.188,-5.327 -1.137,-7.661c0.592,-1.313 2.113,-2.786 3.769,-2.927c0.572,-0.044 1.079,0.376 1.128,0.95s-0.377,1.078 -0.951,1.127c-0.76,0.065 -1.705,0.954 -2.043,1.706c-1,2.22 0.169,4.479 0.955,5.627c0.189,0.277 0.395,0.56 0.604,0.847c1.182,1.626 2.52,3.469 2.316,5.766c-0.168,1.917 -1.408,3.396 -3.314,3.956c-0.098,0.029 -0.198,0.043 -0.294,0.043z"/>
    <g id="svg_128">
     <path id="svg_129" fill="#594A42" d="m1159.615,-637.049c-0.342,0 -0.678,-0.168 -0.877,-0.477c-0.313,-0.483 -0.175,-1.129 0.309,-1.441c0.584,-0.378 1.18,-0.596 1.77,-0.646c0.57,-0.044 1.078,0.377 1.127,0.951c0.049,0.573 -0.376,1.078 -0.949,1.127c-0.242,0.021 -0.523,0.131 -0.814,0.319c-0.176,0.113 -0.372,0.167 -0.566,0.167z"/>
     <path id="svg_130" fill="#594A42" d="m1161.644,-624.164c-0.461,0 -0.882,-0.308 -1.007,-0.773c-0.226,-0.844 -0.742,-1.664 -1.168,-2.284c-0.325,-0.475 -0.203,-1.124 0.271,-1.45c0.475,-0.326 1.123,-0.205 1.449,0.271c0.519,0.757 1.154,1.773 1.462,2.924c0.148,0.556 -0.182,1.128 -0.737,1.277c-0.091,0.024 -0.182,0.035 -0.27,0.035zm-3.628,-6.326c-0.417,0 -0.811,-0.251 -0.971,-0.662c-0.379,-0.962 -0.57,-1.922 -0.57,-2.853c0,-0.156 0.006,-0.311 0.016,-0.467c0.041,-0.575 0.548,-1.009 1.113,-0.968c0.574,0.04 1.008,0.538 0.968,1.112c-0.007,0.107 -0.011,0.215 -0.011,0.322c0,0.669 0.143,1.372 0.424,2.09c0.211,0.536 -0.053,1.141 -0.588,1.352c-0.126,0.051 -0.255,0.074 -0.381,0.074z"/>
     <path id="svg_131" fill="#594A42" d="m1159.217,-619.59c-0.451,0 -0.867,-0.295 -1,-0.75c-0.162,-0.553 0.154,-1.132 0.707,-1.294c0.346,-0.102 0.652,-0.251 0.912,-0.446c0.461,-0.345 1.114,-0.251 1.46,0.21c0.345,0.461 0.251,1.115 -0.21,1.459c-0.46,0.343 -0.99,0.605 -1.575,0.777c-0.099,0.03 -0.197,0.044 -0.294,0.044z"/>
    </g>
   </g>
   <g id="svg_132">
    <g id="svg_133">
     <path id="svg_134" fill="#594A42" d="m1142.52,-529.974c-0.342,0 -0.678,-0.168 -0.877,-0.477c-0.313,-0.483 -0.174,-1.129 0.31,-1.441c0.585,-0.378 1.181,-0.596 1.77,-0.646c0.572,-0.048 1.079,0.376 1.127,0.95c0.05,0.574 -0.376,1.079 -0.95,1.127c-0.242,0.021 -0.523,0.13 -0.814,0.319c-0.176,0.115 -0.373,0.168 -0.566,0.168z"/>
     <path id="svg_135" fill="#594A42" d="m1144.549,-517.088c-0.461,0 -0.883,-0.307 -1.008,-0.773c-0.225,-0.844 -0.742,-1.664 -1.167,-2.284c-0.325,-0.475 -0.204,-1.124 0.271,-1.449c0.475,-0.326 1.123,-0.205 1.449,0.271c0.52,0.757 1.154,1.773 1.463,2.924c0.148,0.556 -0.182,1.127 -0.738,1.276c-0.09,0.023 -0.182,0.035 -0.27,0.035zm-3.629,-6.326c-0.416,0 -0.81,-0.251 -0.971,-0.662c-0.378,-0.962 -0.569,-1.922 -0.569,-2.853c0,-0.155 0.005,-0.311 0.016,-0.467c0.04,-0.574 0.548,-1.009 1.112,-0.968c0.574,0.04 1.008,0.538 0.969,1.113c-0.008,0.107 -0.012,0.214 -0.012,0.322c0,0.669 0.143,1.372 0.425,2.09c0.211,0.536 -0.054,1.141 -0.589,1.352c-0.125,0.049 -0.254,0.073 -0.381,0.073z"/>
     <path id="svg_136" fill="#594A42" d="m1142.121,-512.515c-0.451,0 -0.866,-0.295 -1,-0.749c-0.162,-0.553 0.154,-1.132 0.707,-1.294c0.346,-0.101 0.653,-0.251 0.913,-0.445c0.46,-0.346 1.114,-0.251 1.46,0.21c0.344,0.461 0.25,1.114 -0.211,1.459c-0.459,0.343 -0.988,0.604 -1.574,0.777c-0.099,0.028 -0.197,0.042 -0.295,0.042z"/>
    </g>
    <path id="svg_137" fill="#594A42" d="m1151.535,-512.515c-0.451,0 -0.867,-0.294 -1,-0.749c-0.162,-0.552 0.153,-1.132 0.706,-1.294c1.083,-0.318 1.731,-1.077 1.825,-2.138c0.134,-1.521 -0.914,-2.963 -1.926,-4.357c-0.222,-0.304 -0.438,-0.603 -0.639,-0.896c-1.783,-2.606 -2.186,-5.327 -1.136,-7.661c0.592,-1.313 2.114,-2.786 3.769,-2.927c0.57,-0.048 1.078,0.376 1.127,0.95c0.049,0.573 -0.376,1.078 -0.949,1.127c-0.76,0.065 -1.706,0.954 -2.045,1.706c-1,2.22 0.17,4.479 0.955,5.627c0.19,0.277 0.396,0.56 0.604,0.848c1.181,1.626 2.519,3.468 2.316,5.766c-0.169,1.917 -1.407,3.396 -3.314,3.956c-0.098,0.028 -0.196,0.042 -0.293,0.042z"/>
    <g id="svg_138">
     <path id="svg_139" fill="#594A42" d="m1161.346,-529.974c-0.342,0 -0.678,-0.168 -0.877,-0.477c-0.313,-0.483 -0.174,-1.129 0.311,-1.441c0.584,-0.378 1.18,-0.596 1.77,-0.646c0.572,-0.048 1.078,0.376 1.127,0.95s-0.377,1.079 -0.951,1.127c-0.242,0.021 -0.523,0.13 -0.814,0.319c-0.176,0.115 -0.373,0.168 -0.566,0.168z"/>
     <path id="svg_140" fill="#594A42" d="m1163.375,-517.088c-0.461,0 -0.883,-0.307 -1.007,-0.773c-0.226,-0.844 -0.743,-1.664 -1.167,-2.284c-0.326,-0.475 -0.205,-1.124 0.27,-1.449c0.475,-0.326 1.124,-0.205 1.449,0.271c0.52,0.757 1.154,1.773 1.463,2.924c0.148,0.556 -0.182,1.127 -0.738,1.276c-0.09,0.023 -0.181,0.035 -0.27,0.035zm-3.629,-6.326c-0.416,0 -0.81,-0.251 -0.971,-0.662c-0.378,-0.962 -0.569,-1.922 -0.569,-2.853c0,-0.155 0.005,-0.311 0.017,-0.467c0.039,-0.574 0.541,-1.009 1.111,-0.968c0.575,0.04 1.008,0.538 0.969,1.113c-0.008,0.107 -0.012,0.214 -0.012,0.322c0,0.669 0.143,1.372 0.426,2.09c0.21,0.536 -0.054,1.141 -0.59,1.352c-0.125,0.049 -0.254,0.073 -0.381,0.073z"/>
     <path id="svg_141" fill="#594A42" d="m1160.947,-512.515c-0.45,0 -0.866,-0.295 -1,-0.749c-0.161,-0.553 0.154,-1.132 0.707,-1.294c0.347,-0.101 0.654,-0.251 0.914,-0.445c0.46,-0.346 1.113,-0.251 1.459,0.21c0.345,0.461 0.25,1.114 -0.211,1.459c-0.459,0.343 -0.988,0.604 -1.574,0.777c-0.098,0.028 -0.197,0.042 -0.295,0.042z"/>
    </g>
   </g>
   <g id="svg_142">
    <g id="svg_143">
     <path id="svg_144" fill="#BC7D48" d="m1146.556,-363.047c-1.092,-0.497 -2.034,-0.926 -2.837,-2.442c-0.83,-1.566 -0.804,-2.526 -0.773,-3.636c0.033,-1.166 0.07,-2.487 -0.955,-4.423c-0.205,-0.387 -0.684,-0.533 -1.07,-0.328c-0.386,0.203 -0.533,0.682 -0.328,1.068c0.83,1.569 0.803,2.527 0.771,3.638c-0.033,1.165 -0.069,2.486 0.956,4.422c1.055,1.991 2.397,2.604 3.581,3.142c1.092,0.496 2.035,0.926 2.838,2.44c0.83,1.569 0.805,2.529 0.773,3.641c-0.032,1.167 -0.068,2.486 0.957,4.425c0.205,0.387 0.684,0.533 1.07,0.328c0.386,-0.205 0.533,-0.683 0.329,-1.069c-0.831,-1.569 -0.805,-2.528 -0.774,-3.641c0.033,-1.165 0.068,-2.486 -0.957,-4.424c-1.055,-1.991 -2.397,-2.604 -3.581,-3.141z"/>
     <g id="svg_145">
      <path id="svg_146" fill="#594A42" d="m1138.629,-376.678c-6.515,3.449 -8.406,12.695 -4.215,20.609c4.191,7.915 12.9,11.548 19.416,8.097c6.516,-3.449 8.405,-12.694 4.215,-20.608c-4.191,-7.916 -12.9,-11.548 -19.416,-8.098zm14.243,26.898c-5.489,2.907 -12.935,-0.355 -16.598,-7.273c-3.663,-6.917 -2.177,-14.908 3.313,-17.814c5.489,-2.907 12.934,0.355 16.598,7.271c3.663,6.916 2.176,14.909 -3.313,17.816z"/>
      <path id="svg_147" fill="#594A42" d="m1143.719,-365.489c-0.83,-1.566 -0.804,-2.526 -0.773,-3.636c0.033,-1.166 0.07,-2.487 -0.955,-4.423c-0.205,-0.387 -0.684,-0.533 -1.07,-0.328c-0.386,0.203 -0.533,0.682 -0.328,1.068c0.83,1.569 0.803,2.527 0.771,3.638c-0.033,1.165 -0.069,2.486 0.956,4.422c1.055,1.991 2.397,2.604 3.581,3.142c1.092,0.496 2.035,0.926 2.838,2.44c0.83,1.569 0.805,2.529 0.773,3.641c-0.032,1.167 -0.068,2.486 0.957,4.425c0.205,0.387 0.684,0.533 1.07,0.328c0.386,-0.205 0.533,-0.683 0.329,-1.069c-0.831,-1.569 -0.805,-2.528 -0.774,-3.641c0.033,-1.165 0.068,-2.486 -0.957,-4.424c-1.055,-1.991 -2.396,-2.604 -3.581,-3.141c-1.092,-0.497 -2.035,-0.926 -2.837,-2.442z"/>
     </g>
    </g>
    <g id="svg_148">
     <path id="svg_149" fill="#BC7D48" d="m1177.658,-373.083c-0.387,-1.136 -0.721,-2.115 -0.166,-3.739c0.572,-1.678 1.289,-2.315 2.119,-3.055c0.871,-0.773 1.858,-1.652 2.566,-3.727c0.141,-0.413 -0.08,-0.863 -0.493,-1.004c-0.414,-0.141 -0.864,0.078 -1.005,0.493c-0.573,1.68 -1.29,2.316 -2.12,3.056c-0.872,0.773 -1.858,1.651 -2.565,3.725c-0.729,2.134 -0.254,3.529 0.165,4.761c0.387,1.137 0.72,2.118 0.166,3.74c-0.573,1.681 -1.29,2.318 -2.121,3.058c-0.872,0.774 -1.858,1.654 -2.566,3.729c-0.142,0.414 0.079,0.863 0.493,1.005c0.413,0.142 0.863,-0.079 1.004,-0.493c0.574,-1.681 1.291,-2.318 2.122,-3.059c0.871,-0.774 1.858,-1.653 2.567,-3.729c0.727,-2.133 0.253,-3.529 -0.166,-4.761z"/>
     <g id="svg_150">
      <path id="svg_151" fill="#594A42" d="m1182.117,-388.084c-6.928,-2.363 -14.898,2.556 -17.771,10.972c-2.871,8.414 0.426,17.184 7.354,19.547c6.926,2.365 14.896,-2.558 17.77,-10.971c2.871,-8.415 -0.427,-17.183 -7.353,-19.548zm-9.795,28.692c-5.879,-2.006 -8.604,-9.664 -6.076,-17.072c2.529,-7.407 9.369,-11.801 15.247,-9.793c5.879,2.006 8.604,9.664 6.075,17.072c-2.529,7.408 -9.369,11.801 -15.246,9.793z"/>
      <path id="svg_152" fill="#594A42" d="m1177.492,-376.822c0.572,-1.678 1.289,-2.315 2.119,-3.055c0.871,-0.773 1.858,-1.652 2.566,-3.727c0.141,-0.413 -0.08,-0.863 -0.493,-1.004c-0.414,-0.141 -0.864,0.078 -1.005,0.493c-0.573,1.68 -1.29,2.316 -2.12,3.056c-0.872,0.773 -1.858,1.651 -2.565,3.725c-0.729,2.134 -0.254,3.529 0.165,4.761c0.387,1.137 0.72,2.118 0.166,3.74c-0.573,1.681 -1.29,2.318 -2.121,3.058c-0.872,0.774 -1.858,1.654 -2.566,3.729c-0.142,0.414 0.079,0.863 0.493,1.005c0.413,0.142 0.863,-0.079 1.004,-0.493c0.574,-1.681 1.291,-2.318 2.122,-3.059c0.871,-0.774 1.858,-1.653 2.567,-3.729c0.727,-2.133 0.253,-3.528 -0.166,-4.761c-0.387,-1.136 -0.72,-2.115 -0.166,-3.739z"/>
     </g>
    </g>
    <g id="svg_153">
     <path id="svg_154" fill="#BC7D48" d="m1154.822,-396.068c-0.299,-0.877 -0.557,-1.636 -0.128,-2.89c0.442,-1.297 0.997,-1.789 1.638,-2.36c0.674,-0.599 1.437,-1.278 1.984,-2.881c0.108,-0.319 -0.063,-0.667 -0.382,-0.775s-0.667,0.061 -0.776,0.381c-0.443,1.298 -0.997,1.791 -1.639,2.361c-0.673,0.599 -1.436,1.277 -1.983,2.879c-0.562,1.648 -0.196,2.728 0.128,3.68c0.299,0.878 0.557,1.636 0.129,2.89c-0.443,1.299 -0.998,1.792 -1.64,2.363c-0.673,0.599 -1.437,1.278 -1.983,2.883c-0.109,0.318 0.062,0.666 0.381,0.775c0.32,0.109 0.668,-0.061 0.777,-0.382c0.443,-1.298 0.996,-1.79 1.639,-2.363c0.674,-0.599 1.436,-1.277 1.984,-2.881c0.563,-1.649 0.195,-2.728 -0.129,-3.68z"/>
     <g id="svg_155">
      <path id="svg_156" fill="#594A42" d="m1158.381,-407.987c-5.502,-1.878 -11.833,2.031 -14.113,8.713c-2.281,6.683 0.338,13.647 5.838,15.524c5.502,1.878 11.832,-2.031 14.113,-8.713c2.281,-6.683 -0.338,-13.646 -5.838,-15.524zm-7.682,22.501c-4.544,-1.551 -6.649,-7.47 -4.695,-13.195c1.954,-5.725 7.24,-9.119 11.783,-7.568s6.648,7.469 4.695,13.193c-1.955,5.725 -7.24,9.121 -11.783,7.57z"/>
      <path id="svg_157" fill="#594A42" d="m1154.694,-398.958c0.442,-1.297 0.997,-1.789 1.638,-2.36c0.674,-0.599 1.437,-1.278 1.984,-2.881c0.108,-0.319 -0.063,-0.667 -0.382,-0.775s-0.667,0.061 -0.776,0.381c-0.443,1.298 -0.997,1.791 -1.639,2.361c-0.673,0.599 -1.436,1.277 -1.983,2.879c-0.562,1.648 -0.196,2.728 0.128,3.68c0.299,0.878 0.557,1.636 0.129,2.89c-0.443,1.299 -0.998,1.792 -1.64,2.363c-0.673,0.599 -1.437,1.278 -1.983,2.883c-0.109,0.318 0.062,0.666 0.381,0.775c0.32,0.109 0.668,-0.061 0.777,-0.382c0.443,-1.298 0.996,-1.79 1.639,-2.363c0.674,-0.599 1.436,-1.277 1.984,-2.881c0.563,-1.648 0.195,-2.728 -0.129,-3.68c-0.299,-0.877 -0.556,-1.636 -0.128,-2.89z"/>
     </g>
    </g>
   </g>
   <g id="svg_158">
    <path id="svg_159" fill="#BC7D48" d="m1487.357,-579.361l0.193,0c0.002,-0.008 0.004,-0.017 0.004,-0.025l-0.197,0.025z"/>
    <path id="svg_160" fill="#BC7D48" d="m1450.688,-613.592l-0.461,0l0.465,0.058c-0.003,-0.02 -0.003,-0.039 -0.004,-0.058z"/>
    <path id="svg_161" fill="#BC7D48" d="m1491.664,-613.592l-0.393,0c-0.002,0.017 -0.004,0.034 -0.006,0.051l0.399,-0.051z"/>
    <path id="svg_162" fill="#594637" d="m1469.994,-584.703c-7.022,0 -12.736,-5.713 -12.736,-12.735s5.714,-12.736 12.736,-12.736c7.021,0 12.734,5.713 12.734,12.736s-5.712,12.735 -12.734,12.735zm0,-23.971c-6.195,0 -11.236,5.041 -11.236,11.236s5.041,11.235 11.236,11.235c6.194,0 11.234,-5.04 11.234,-11.235s-5.04,-11.236 -11.234,-11.236z"/>
    <polygon id="svg_163" points="1485.979,-579.183 1487.357,-579.361 1486,-579.361   " fill="#594637"/>
    <path id="svg_164" fill="#594637" d="m1493.021,-613.592l0.023,-0.178l-0.717,0.092c-0.004,0.029 -0.006,0.057 -0.008,0.085l0.702,0l0,0.001z"/>
    <path id="svg_165" opacity="0.2" d="m1493.021,-613.592l0.023,-0.178l-0.717,0.092c-0.004,0.029 -0.006,0.057 -0.008,0.085l0.702,0l0,0.001z"/>
    <path id="svg_166" fill="#594637" d="m1492.32,-613.592c0.002,-0.029 0.004,-0.057 0.008,-0.085l-0.664,0.085l0.656,0z"/>
    <path id="svg_167" opacity="0.2" d="m1492.32,-613.592c0.002,-0.029 0.004,-0.057 0.008,-0.085l-0.664,0.085l0.656,0z"/>
    <path id="svg_168" fill="#594637" d="m1449.631,-613.666l-0.785,-0.097l0.021,0.17l0.771,0c-0.003,-0.024 -0.003,-0.048 -0.007,-0.073z"/>
    <path id="svg_169" opacity="0.3" fill="#FFFFFF" d="m1449.631,-613.666l-0.785,-0.097l0.021,0.17l0.771,0c-0.003,-0.024 -0.003,-0.048 -0.007,-0.073z"/>
    <polygon id="svg_170" points="1453.154,-579.531 1453.213,-579.539 1452.033,-588.434   " fill="#594637"/>
    <polygon id="svg_171" points="1453.154,-579.531 1453.213,-579.539 1452.033,-588.434   " opacity="0.3" fill="#FFFFFF"/>
    <path id="svg_172" fill="#594637" d="m1450.227,-613.592l-0.596,-0.074c0.004,0.025 0.004,0.049 0.008,0.074l0.588,0z"/>
    <path id="svg_173" opacity="0.3" fill="#FFFFFF" d="m1450.227,-613.592l-0.596,-0.074c0.004,0.025 0.004,0.049 0.008,0.074l0.588,0z"/>
    <polygon id="svg_174" points="1455.244,-568.773 1455.246,-568.773 1455.244,-568.774   " fill="#594637"/>
    <path id="svg_175" fill="#594637" d="m1493.545,-615.678c0.203,-2.476 0.354,-4.417 0.441,-5.59l1.334,0l0,-4.31l0,-1.532l0,-4.313l-3.836,0l-1.305,-7.629l-38.57,0l-1.148,7.629l-3.992,0l0,4.313l0,1.532l0,4.31l1.502,0c0.088,1.173 0.238,3.114 0.443,5.59l-2.092,0l5.086,38.402l1.199,0c0.809,5.217 1.686,9.618 2.604,12.274l0.242,0.703l31.051,0l0.242,-0.703c0.918,-2.656 1.795,-7.057 2.605,-12.274l1.371,0l4.734,-38.402l-1.911,0zm-40.141,-21.288l35.018,0l0.896,5.238l-36.701,0l0.787,-5.238zm31.6,70.582l-28.051,0c-0.215,-0.7 -0.428,-1.5 -0.639,-2.389l2.389,0l18.383,0l0,-1.39l-18.639,0l-2.447,0c-0.439,-2.054 -0.867,-4.469 -1.279,-7.112l2.617,0l27.43,0l2.469,0c-0.704,4.517 -1.456,8.364 -2.233,10.891zm3.875,-12.977l-0.273,0l-1.055,0l-0.193,0l-1.358,0l-31.594,0l-1.055,0l-0.115,0l-1.203,-9.073l-3.332,-25.159l0.166,0l1.359,0l0.461,0l40.584,0l0.393,0l1.357,0l0.076,0l-4.218,34.232zm-38.816,-41.907l39.143,0l2.689,0c-0.092,1.197 -0.244,3.132 -0.449,5.59l-2.738,0l-38.195,0c-0.206,-2.457 -0.359,-4.393 -0.45,-5.59zm43.171,-2.315l0,0.231l-44.682,0l0,-0.231l0,-1.44l44.682,0l0,1.44zm0,-4.08l-44.682,0l0,-1.675l44.682,0l0,1.675z"/>
    <path id="svg_176" fill="#594637" d="m1468.63,-590.35c1.371,-2.14 0.769,-4.892 0.233,-6.344c-0.534,-1.452 -0.572,-4.013 -0.305,-5.121c0.267,-1.109 0.305,-2.178 0.305,-2.178s-5.697,0.712 -5.197,6.821c0.573,7.013 4.964,6.822 4.964,6.822z"/>
    <path id="svg_177" fill="#594637" d="m1471.799,-592.528c-0.267,1.108 -0.305,2.179 -0.305,2.179s5.697,-0.712 5.197,-6.822c-0.573,-7.013 -4.964,-6.822 -4.964,-6.822c-1.37,2.14 -0.769,4.892 -0.233,6.344c0.535,1.452 0.573,4.012 0.305,5.121z"/>
   </g>
   <g id="svg_178">
    <g id="svg_179">
     <path id="svg_180" fill="#DAD4CF" d="m1170.368,-247.099c-0.146,0.176 -0.299,0.343 -0.454,0.51c0.155,-0.167 0.309,-0.334 0.454,-0.51z"/>
     <path id="svg_181" fill="#DAD4CF" d="m1168.389,-245.229c-1.187,0.874 -2.551,1.522 -4.032,1.88c1.482,-0.358 2.845,-1.003 4.032,-1.88z"/>
     <path id="svg_182" fill="#DAD4CF" d="m1150.774,-251.526c-0.028,-0.114 -0.054,-0.229 -0.079,-0.345c0.026,0.115 0.051,0.23 0.079,0.345z"/>
     <path id="svg_183" fill="#DAD4CF" d="m1171.214,-248.279c-0.211,0.335 -0.438,0.66 -0.683,0.97c0.244,-0.31 0.472,-0.633 0.683,-0.97z"/>
     <path id="svg_184" fill="#DAD4CF" d="m1172.066,-249.925c-0.058,0.139 -0.114,0.277 -0.177,0.413c0.063,-0.135 0.12,-0.274 0.177,-0.413z"/>
     <path id="svg_185" fill="#DAD4CF" d="m1150.568,-252.563c-0.016,-0.105 -0.034,-0.212 -0.047,-0.317c0.013,0.106 0.032,0.212 0.047,0.317z"/>
     <path id="svg_186" fill="#DAD4CF" d="m1171.647,-249.034c-0.072,0.139 -0.141,0.281 -0.22,0.415c0.08,-0.134 0.148,-0.276 0.22,-0.415z"/>
     <path id="svg_187" fill="#DAD4CF" d="m1169.065,-245.771c-0.191,0.166 -0.388,0.326 -0.59,0.479c0.203,-0.152 0.399,-0.312 0.59,-0.479z"/>
     <path id="svg_188" fill="#DAD4CF" d="m1153.688,-246.348c-0.324,-0.326 -0.623,-0.676 -0.905,-1.04c0.281,0.366 0.581,0.713 0.905,1.04z"/>
     <path id="svg_189" fill="#DAD4CF" d="m1154.236,-245.834c-0.182,-0.159 -0.359,-0.323 -0.531,-0.494c0.171,0.171 0.35,0.334 0.531,0.494z"/>
     <path id="svg_190" fill="#DAD4CF" d="m1151.569,-249.343c-0.057,-0.117 -0.118,-0.233 -0.171,-0.354c0.053,0.121 0.115,0.237 0.171,0.354z"/>
     <path id="svg_191" fill="#DAD4CF" d="m1154.938,-245.262c-0.2,-0.149 -0.395,-0.308 -0.585,-0.47c0.19,0.164 0.385,0.32 0.585,0.47z"/>
     <path id="svg_192" fill="#DAD4CF" d="m1152.063,-248.432c-0.083,-0.139 -0.165,-0.276 -0.243,-0.419c0.078,0.143 0.16,0.281 0.243,0.419z"/>
     <path id="svg_193" fill="#DAD4CF" d="m1152.602,-247.619c-0.105,-0.145 -0.203,-0.292 -0.303,-0.441c0.099,0.149 0.197,0.296 0.303,0.441z"/>
     <path id="svg_194" fill="#DAD4CF" d="m1169.735,-246.399c-0.165,0.169 -0.336,0.331 -0.512,0.489c0.176,-0.159 0.347,-0.32 0.512,-0.489z"/>
     <path id="svg_195" fill="#DAD4CF" d="m1151.058,-250.562c-0.032,-0.095 -0.06,-0.194 -0.091,-0.29c0.031,0.096 0.058,0.196 0.091,0.29z"/>
     <path id="svg_196" fill="#DAD4CF" d="m1172.851,-252.872c-0.014,0.115 -0.036,0.227 -0.054,0.341c0.017,-0.115 0.04,-0.226 0.054,-0.341z"/>
     <path id="svg_197" fill="#DAD4CF" d="m1172.411,-250.867c-0.043,0.138 -0.088,0.274 -0.137,0.41c0.049,-0.136 0.094,-0.272 0.137,-0.41z"/>
     <path id="svg_198" fill="#DAD4CF" d="m1172.675,-251.851c-0.029,0.133 -0.063,0.263 -0.098,0.395c0.034,-0.132 0.069,-0.262 0.098,-0.395z"/>
     <path id="svg_199" fill="#FFFFFF" d="m1172.797,-252.531c-0.035,0.229 -0.073,0.456 -0.122,0.681c0.049,-0.225 0.087,-0.452 0.122,-0.681z"/>
     <path id="svg_200" fill="#FFFFFF" d="m1172.935,-253.923c-0.011,0.355 -0.041,0.706 -0.084,1.051c0.043,-0.345 0.073,-0.695 0.084,-1.051z"/>
     <path id="svg_201" fill="#FFFFFF" d="m1168.476,-245.291c-0.029,0.02 -0.059,0.04 -0.087,0.063c0.028,-0.023 0.057,-0.043 0.087,-0.063z"/>
     <path id="svg_202" fill="#FFFFFF" d="m1169.224,-245.91c-0.053,0.046 -0.105,0.094 -0.158,0.14c0.052,-0.046 0.105,-0.094 0.158,-0.14z"/>
     <polygon id="svg_203" points="1164.351,-243.348 1164.356,-243.349 1164.35,-243.348    " fill="#FFFFFF"/>
     <path id="svg_204" fill="#FFFFFF" d="m1171.428,-248.619c-0.067,0.117 -0.144,0.228 -0.214,0.34c0.07,-0.113 0.146,-0.223 0.214,-0.34z"/>
     <path id="svg_205" fill="#FFFFFF" d="m1171.89,-249.512c-0.075,0.163 -0.159,0.32 -0.242,0.478c0.082,-0.157 0.165,-0.315 0.242,-0.478z"/>
     <path id="svg_206" fill="#FFFFFF" d="m1172.274,-250.457c-0.064,0.18 -0.135,0.357 -0.208,0.532c0.074,-0.175 0.144,-0.352 0.208,-0.532z"/>
     <path id="svg_207" fill="#FFFFFF" d="m1169.914,-246.589c-0.06,0.063 -0.118,0.127 -0.179,0.189c0.061,-0.062 0.119,-0.126 0.179,-0.189z"/>
     <path id="svg_208" fill="#FFFFFF" d="m1172.577,-251.456c-0.05,0.198 -0.105,0.396 -0.166,0.589c0.062,-0.194 0.116,-0.391 0.166,-0.589z"/>
     <path id="svg_209" fill="#FFFFFF" d="m1170.531,-247.31c-0.056,0.07 -0.106,0.142 -0.163,0.211c0.057,-0.069 0.108,-0.14 0.163,-0.211z"/>
     <path id="svg_210" fill="#E5DFDA" d="m1152.782,-247.388c-0.06,-0.077 -0.122,-0.151 -0.181,-0.231c0.059,0.08 0.122,0.154 0.181,0.231z"/>
     <path id="svg_211" fill="#E5DFDA" d="m1150.695,-251.871c-0.049,-0.229 -0.091,-0.459 -0.127,-0.691c0.036,0.232 0.078,0.462 0.127,0.691z"/>
     <path id="svg_212" fill="#E5DFDA" d="m1154.964,-245.242c-0.009,-0.007 -0.017,-0.013 -0.026,-0.02c0.009,0.007 0.017,0.013 0.026,0.02z"/>
     <path id="svg_213" fill="#E5DFDA" d="m1150.967,-250.852c-0.07,-0.223 -0.135,-0.447 -0.192,-0.675c0.057,0.228 0.121,0.453 0.192,0.675z"/>
     <path id="svg_214" fill="#E5DFDA" d="m1150.521,-252.88c-0.042,-0.338 -0.074,-0.681 -0.086,-1.026c0.012,0.347 0.044,0.688 0.086,1.026z"/>
     <path id="svg_215" fill="#E5DFDA" d="m1151.398,-249.696c-0.125,-0.282 -0.238,-0.57 -0.341,-0.865c0.103,0.294 0.216,0.582 0.341,0.865z"/>
     <path id="svg_216" fill="#E5DFDA" d="m1151.82,-248.851c-0.088,-0.16 -0.17,-0.326 -0.251,-0.492c0.081,0.166 0.163,0.332 0.251,0.492z"/>
     <path id="svg_217" fill="#E5DFDA" d="m1153.705,-246.328c-0.006,-0.007 -0.012,-0.014 -0.018,-0.02c0.006,0.006 0.012,0.013 0.018,0.02z"/>
     <path id="svg_218" fill="#E5DFDA" d="m1154.353,-245.731c-0.038,-0.034 -0.077,-0.067 -0.116,-0.103c0.038,0.035 0.077,0.068 0.116,0.103z"/>
     <path id="svg_219" fill="#E5DFDA" d="m1152.299,-248.061c-0.08,-0.122 -0.16,-0.246 -0.235,-0.371c0.076,0.125 0.155,0.249 0.235,0.371z"/>
    </g>
    <g id="svg_220">
     <path id="svg_221" fill="#FFFFFF" d="m1160.771,-297.021c-0.129,-0.022 -0.26,-0.048 -0.391,-0.065l-0.026,0.355c0.138,-0.099 0.279,-0.195 0.417,-0.29z"/>
    </g>
    <path id="svg_222" fill="#594A42" d="m1185.972,-281.104c-1.942,-3.191 -5.266,-4.648 -9.112,-3.993c-0.047,0.008 -0.084,0.036 -0.129,0.05l0.28,-5.164c0.033,-0.66 -0.207,-1.311 -0.662,-1.789c-0.345,-0.361 -0.796,-0.604 -1.28,-0.701c0.354,-0.67 0.584,-1.454 0.632,-2.294c0.127,-2.209 -0.946,-4.159 -2.871,-5.215c-2.056,-1.127 -4.403,-1.29 -7.019,-0.507c0.004,-0.068 0.016,-0.136 0.017,-0.204c0.013,-1.071 -0.545,-1.967 -1.493,-2.396c-0.524,-0.239 -1.142,-0.006 -1.38,0.519c-0.237,0.525 -0.005,1.143 0.52,1.38c0.133,0.061 0.272,0.151 0.27,0.473c-0.006,0.487 -0.33,0.921 -0.471,0.98c-0.678,0.286 -1.969,-0.048 -2.825,-0.271l-0.158,-0.041c-1.291,-0.332 -2.867,-0.661 -4.735,-0.587c-6.359,0.256 -7.694,3.292 -7.694,5.794c0,0.852 0.29,1.668 0.813,2.366l-0.034,0c-0.659,0.001 -1.296,0.276 -1.749,0.756s-0.691,1.131 -0.656,1.793l2.107,36.345c0.191,5.476 3.603,10.043 8.388,11.94c0.028,0.05 0.042,0.106 0.08,0.153c1.058,1.296 1.618,2.867 1.62,4.538c0.004,2.064 -0.764,2.355 -2.814,3.135c-0.476,0.181 -0.986,0.376 -1.527,0.609c-2.314,1.007 -3.807,3.211 -3.803,5.613l0,0.119c0.002,0.579 0.473,1.049 1.051,1.047l20.812,-0.036c0.58,-0.002 1.049,-0.473 1.047,-1.051l0,-0.12c-0.004,-2.402 -1.504,-4.601 -3.822,-5.6c-0.541,-0.232 -1.053,-0.425 -1.529,-0.604c-2.054,-0.771 -2.822,-1.061 -2.826,-3.124c-0.003,-1.673 0.553,-3.245 1.604,-4.545c0.039,-0.048 0.053,-0.105 0.082,-0.157c4.77,-1.916 8.158,-6.488 8.33,-11.941l0.529,-9.726c0.164,0.103 0.348,0.175 0.55,0.174c0.05,0 0.099,-0.004 0.148,-0.011c3.018,-0.432 7.057,-2.188 9.278,-5.139c2.546,-3.385 2.733,-8.789 0.431,-12.568zm-35.372,-12.547c-0.428,-0.406 -0.654,-0.897 -0.654,-1.418c0,-1.495 0.59,-3.506 5.691,-3.711c1.291,-0.053 2.488,0.101 4.133,0.523l0.154,0.04c0.184,0.048 0.379,0.097 0.58,0.146c-0.236,0.16 -0.473,0.32 -0.713,0.492c-0.467,0.335 -0.574,0.986 -0.238,1.455c0.336,0.467 0.986,0.575 1.455,0.238c4.419,-3.172 8.059,-4.013 10.818,-2.497c1.732,0.95 1.83,2.602 1.792,3.268c-0.069,1.204 -0.664,2.081 -1.188,2.294c-0.044,0.018 -0.073,0.052 -0.112,0.074l-18.969,0.035c-1.14,-0.028 -2.128,-0.351 -2.749,-0.939zm16.504,61.548c0.446,0.168 0.929,0.349 1.438,0.568c1.257,0.542 2.136,1.551 2.438,2.746l-18.485,0.033c0.298,-1.196 1.173,-2.209 2.428,-2.756c0.508,-0.22 0.99,-0.403 1.436,-0.573c2.146,-0.814 4.174,-1.586 4.168,-5.099c-0.002,-1.355 -0.308,-2.69 -0.875,-3.909c0.674,0.102 1.357,0.169 2.06,0.168c0.706,-0.001 1.394,-0.072 2.069,-0.177c-0.563,1.221 -0.863,2.558 -0.861,3.914c0.004,3.514 2.034,4.279 4.184,5.085zm5.832,-21.82c-0.192,6.103 -5.125,10.891 -11.229,10.901c-6.106,0.011 -11.056,-4.761 -11.271,-10.885l-2.107,-36.366c-0.007,-0.118 0.051,-0.198 0.085,-0.234c0.034,-0.038 0.111,-0.1 0.228,-0.1l4.73,-0.008c0.045,0 0.086,0.01 0.132,0.01c0.13,0 0.263,-0.005 0.396,-0.011l20.702,-0.037c0.117,0 0.193,0.062 0.229,0.098c0.035,0.037 0.092,0.117 0.087,0.232l-1.982,36.4zm3.466,-25.116c0.121,0.065 0.249,0.115 0.39,0.13c0.018,0.002 0.033,0.007 0.05,0.008c0.068,0.004 0.139,0.001 0.209,-0.01c1.197,-0.174 2.024,0.351 2.51,0.814c0.897,0.858 1.348,2.226 1.206,3.655c-0.252,2.568 -1.899,4.336 -4.41,4.797c-0.018,0.004 -0.033,0.009 -0.051,0.011c-0.072,0.014 -0.138,0.035 -0.211,0.047c-0.077,0.011 -0.141,0.048 -0.21,0.075l0.517,-9.527zm7.458,9.244c-1.551,2.061 -4.693,3.8 -7.699,4.284c-0.066,0.011 -0.133,0.03 -0.199,0.039c-0.11,0.016 -0.208,0.061 -0.304,0.107l0.123,-2.258c0.143,0.071 0.295,0.122 0.462,0.121c0.004,0 0.008,0 0.012,0c0.045,-0.001 0.09,-0.004 0.137,-0.01c3.629,-0.519 6.105,-3.095 6.463,-6.727c0.203,-2.065 -0.486,-4.075 -1.843,-5.374c-1.128,-1.081 -2.587,-1.568 -4.12,-1.388c-0.047,0.006 -0.092,0.006 -0.138,0.013c-0.092,0.013 -0.169,0.054 -0.25,0.088l0.12,-2.207c0.113,0.049 0.234,0.081 0.361,0.087c0.074,0.004 0.15,0.001 0.227,-0.012c2.997,-0.511 5.475,0.561 6.969,3.015c1.88,3.088 1.742,7.483 -0.321,10.222z"/>
   </g>
   <path id="svg_223" fill="#594637" d="m1265.377,-416.881l-3.129,0l0,-3.205l-23.121,0l0,3.205l-3.142,0c-3.03,0 -5.497,2.874 -5.497,6.405l0,8.394l1.159,0c0.317,3.27 0.899,6.991 1.968,9.553c-0.631,6.071 -3.54,36.238 -0.758,51.617l0.155,0.857l35.419,0l0.154,-0.857c2.787,-15.396 -0.12,-45.505 -0.758,-51.617c1.063,-2.548 1.643,-6.275 1.963,-9.553l1.084,0l0,-8.394c0.001,-3.531 -2.466,-6.405 -5.497,-6.405zm-24.164,-1.12l18.95,0l0,1.12l-18.95,0l0,-1.12zm-8.639,7.525c0,-2.341 1.563,-4.319 3.411,-4.319l3.142,0l2.086,0l18.95,0l2.085,0l3.129,0c1.85,0 3.412,1.979 3.412,4.319l0,0.421l0,5.888l-0.91,0l-34.313,0l-0.992,0l0,-5.888l0,-0.421zm33.149,17.849c0.001,0.011 0.009,0.09 0.023,0.233c0.603,5.761 3.43,34.82 0.936,50.254l-31.918,0c-2.387,-14.766 0.105,-42.077 0.846,-49.39l11.656,0l0,-2l-11.796,0c-0.905,-2.273 -1.429,-5.572 -1.725,-8.553l33.952,0c-0.34,3.346 -0.926,6.808 -1.887,8.967l-0.104,0.233l0.017,0.256z"/>
   <path id="svg_224" fill="#594637" d="m1367.832,-371.002c1.371,-2.14 0.769,-4.892 0.233,-6.344c-0.534,-1.452 -0.573,-4.013 -0.306,-5.121c0.268,-1.109 0.306,-2.178 0.306,-2.178s-5.697,0.712 -5.197,6.821c0.573,7.012 4.964,6.822 4.964,6.822z"/>
   <path id="svg_225" fill="#594637" d="m1371.167,-373.181c-0.267,1.108 -0.305,2.179 -0.305,2.179s5.696,-0.712 5.196,-6.822c-0.572,-7.013 -4.963,-6.822 -4.963,-6.822c-1.371,2.14 -0.77,4.892 -0.233,6.344c0.534,1.453 0.574,4.013 0.305,5.121z"/>
   <path id="svg_226" fill="#594637" d="m1154.34,-248.681c-1.52,-2.28 -1.398,-4.661 -1.393,-4.761l-1.162,-27.86l1.5,-0.063l1.16,27.935c-0.001,0.092 -0.088,2.069 1.143,3.916l-1.248,0.833z"/>
   <rect id="svg_227" y="-285.931" x="1150.555" width="3.641" transform="matrix(0.0416,0.9991,-0.9991,0.0416,819.5308,-1424.7035) " height="1.5" fill="#594637"/>
  </g>
  <g stroke="null" id="svg_228">
   <path stroke="null" fill="#ffffff" id="svg_229" d="m31.643986,8.264679l-32.07691,22.661041l9.542999,0l0,29.087059l5.242886,0l0,-23.326943l13.602273,0l0,23.326943l26.222663,0l0,-29.087059l9.544028,0l-32.07794,-22.661041zm9.04897,40.217681l-8.907966,0l0,-11.532965l8.907966,0l0,11.532965zm9.91455,0l-8.908995,0l0,-11.532965l8.908995,0l0,11.532965z"/>
   <polygon stroke="null" fill="#ffffff" id="svg_230" points="58.049848556518555,63.33463382720947 5.241207122802734,63.33463382720947 5.241207122802734,66.62342166900635 1.8447561264038086,66.62342166900635 1.8447561264038086,67.84700107574463 5.303991317749023,67.84700107574463 5.303991317749023,67.23457431793213 7.403615951538086,67.23457431793213 7.403615951538086,67.84700107574463 10.861820220947266,67.84700107574463 10.861820220947266,67.23457431793213 12.961446762084961,67.23457431793213 12.961446762084961,67.84700107574463 16.418621063232422,67.84700107574463 16.418621063232422,67.23457431793213 18.51927375793457,67.23457431793213 18.51927375793457,67.84700107574463 21.976449966430664,67.84700107574463 21.976449966430664,67.23457431793213 24.076074600219727,67.23457431793213 24.076074600219727,67.84700107574463 27.53428077697754,67.84700107574463 27.53428077697754,67.23457431793213 29.6339054107666,67.23457431793213 29.6339054107666,67.84700107574463 33.09313774108887,67.84700107574463 33.09313774108887,67.23457431793213 35.19173622131348,67.23457431793213 35.19173622131348,67.84700107574463 38.65097236633301,67.84700107574463 38.65097236633301,67.23457431793213 40.749563217163086,67.23457431793213 40.749563217163086,67.84700107574463 44.20776557922363,67.84700107574463 44.20776557922363,67.23457431793213 46.30842399597168,67.23457431793213 46.30842399597168,67.84700107574463 49.76560020446777,67.84700107574463 49.76560020446777,67.23457431793213 51.86624717712402,67.23457431793213 51.86624717712402,67.84700107574463 55.32343101501465,67.84700107574463 55.32343101501465,67.23457431793213 57.42202568054199,67.23457431793213 57.42202568054199,67.84700107574463 60.88229179382324,67.84700107574463 60.88229179382324,66.62342166900635 58.049848556518555,66.62342166900635 "/>
   <rect stroke="null" fill="#ffffff" id="svg_231" y="1.366291" x="24.076074" width="3.458205" height="1.223579"/>
   <rect stroke="null" fill="#ffffff" id="svg_232" y="1.366291" x="12.961444" width="3.458205" height="1.223579"/>
   <rect stroke="null" fill="#ffffff" id="svg_233" y="1.366291" x="29.633904" width="3.459234" height="1.223579"/>
   <rect stroke="null" fill="#ffffff" id="svg_234" y="1.366291" x="-9.269874" width="3.458205" height="1.223579"/>
   <rect stroke="null" fill="#ffffff" id="svg_235" y="1.366291" x="18.519274" width="3.458205" height="1.223579"/>
   <rect stroke="null" fill="#ffffff" id="svg_236" y="1.366291" x="57.422023" width="3.459234" height="1.223579"/>
   <rect stroke="null" fill="#ffffff" id="svg_237" y="1.366291" x="74.09757" width="3.457176" height="1.223579"/>
   <rect stroke="null" fill="#ffffff" id="svg_238" y="1.366291" x="35.191733" width="3.459234" height="1.223579"/>
   <rect stroke="null" fill="#ffffff" id="svg_239" y="1.366291" x="51.866251" width="3.457176" height="1.223579"/>
   <rect stroke="null" fill="#ffffff" id="svg_240" y="1.366291" x="46.308422" width="3.457176" height="1.223579"/>
   <rect stroke="null" fill="#ffffff" id="svg_241" y="1.366291" x="40.749563" width="3.457176" height="1.223579"/>
   <rect stroke="null" fill="#ffffff" id="svg_242" y="1.366291" x="1.844756" width="3.458205" height="1.223579"/>
   <rect stroke="null" fill="#ffffff" id="svg_243" y="66.623416" x="-9.269874" width="3.458205" height="1.223579"/>
   <rect stroke="null" fill="#ffffff" id="svg_244" y="66.623416" x="74.09757" width="3.457176" height="1.223579"/>
   <polygon stroke="null" fill="#ffffff" id="svg_245" points="-0.2548685073852539,66.62342166900635 -3.71307373046875,66.62342166900635 -3.71307373046875,67.84700107574463 -0.9269533157348633,67.84700107574463 -0.9269533157348633,71.772385597229 0.061104774475097656,71.772385597229 0.061104774475097656,67.49431705474854 -0.2548685073852539,67.49431705474854 "/>
   <rect stroke="null" fill="#ffffff" id="svg_246" y="56.370052" x="71.202352" width="0.987029" height="4.27807"/>
   <rect stroke="null" fill="#ffffff" id="svg_247" y="49.493309" x="71.202352" width="0.987029" height="4.279344"/>
   <polygon stroke="null" fill="#ffffff" id="svg_248" points="71.20235252380371,66.62342166900635 68.53871726989746,66.62342166900635 68.53871726989746,67.84700107574463 71.99691581726074,67.84700107574463 71.99691581726074,67.14798831939697 72.18938255310059,67.14798831939697 72.18938255310059,63.244248390197754 71.20235252380371,63.244248390197754 "/>
   <rect stroke="null" fill="#ffffff" id="svg_249" y="35.743642" x="71.202352" width="0.987029" height="4.279344"/>
   <rect stroke="null" fill="#ffffff" id="svg_250" y="42.619112" x="71.202352" width="0.987029" height="4.27807"/>
   <rect stroke="null" fill="#ffffff" id="svg_251" y="15.115958" x="71.202352" width="0.987029" height="4.279344"/>
   <rect stroke="null" fill="#ffffff" id="svg_252" y="8.241761" x="71.202352" width="0.987029" height="4.27807"/>
   <polygon stroke="null" fill="#ffffff" id="svg_253" points="71.20235252380371,5.645634651184082 72.18938255310059,5.645634651184082 72.18938255310059,1.3662919998168945 71.99691581726074,1.3662919998168945 71.20235252380371,1.3662919998168945 68.53871726989746,1.3662919998168945 68.53871726989746,2.58986759185791 71.20235252380371,2.58986759185791 "/>
   <rect stroke="null" fill="#ffffff" id="svg_254" y="21.992701" x="71.202352" width="0.987029" height="4.27807"/>
   <polygon stroke="null" fill="#ffffff" id="svg_255" points="9.471334457397461,7.349225044250488 10.458362579345703,7.349225044250488 10.458362579345703,2.58986759185791 10.861820220947266,2.58986759185791 10.861820220947266,1.3662919998168945 10.458362579345703,1.3662919998168945 10.458362579345703,-7.660944938659668 9.471334457397461,-7.660944938659668 9.471334457397461,1.3662919998168945 7.403615951538086,1.3662919998168945 7.403615951538086,2.58986759185791 9.471334457397461,2.58986759185791 "/>
   <polygon stroke="null" fill="#ffffff" id="svg_256" points="72.18938255310059,30.57812213897705 72.18938255310059,28.866909980773926 71.20235252380371,28.866909980773926 71.20235252380371,30.57812213897705 67.3551082611084,30.57812213897705 67.3551082611084,31.801701545715332 71.20235252380371,31.801701545715332 71.20235252380371,33.14751148223877 72.18938255310059,33.14751148223877 72.18938255310059,31.801701545715332 80.6383113861084,31.801701545715332 80.6383113861084,30.57812213897705 "/>
   <rect stroke="null" fill="#ffffff" id="svg_257" y="11.068343" x="62.560956" width="0.987029" height="4.27807"/>
   <rect stroke="null" fill="#ffffff" id="svg_258" y="59.196635" x="62.560956" width="0.987029" height="4.279344"/>
   <rect stroke="null" fill="#ffffff" id="svg_259" y="45.445694" x="62.560956" width="0.987029" height="4.27807"/>
   <rect stroke="null" fill="#ffffff" id="svg_260" y="31.694754" x="62.560956" width="0.987029" height="4.27807"/>
   <rect stroke="null" fill="#ffffff" id="svg_261" y="38.568951" x="62.560956" width="0.987029" height="4.279344"/>
   <polygon stroke="null" fill="#ffffff" id="svg_262" points="63.54798698425293,-2.682600975036621 62.56094932556152,-2.682600975036621 62.56094932556152,1.5954790115356445 62.980886459350586,1.5954790115356445 62.980886459350586,2.58986759185791 66.44011497497559,2.58986759185791 66.44011497497559,1.3662919998168945 63.54798698425293,1.3662919998168945 "/>
   <rect stroke="null" fill="#ffffff" id="svg_263" y="52.319891" x="62.560956" width="0.987029" height="4.279344"/>
   <rect stroke="null" fill="#ffffff" id="svg_264" y="72.946302" x="62.560956" width="0.987029" height="3.36898"/>
   <rect stroke="null" fill="#ffffff" id="svg_265" y="4.1916" x="62.560956" width="0.987029" height="4.279344"/>
   <rect stroke="null" fill="#ffffff" id="svg_266" y="24.819283" x="62.560956" width="0.987029" height="4.279344"/>
   <polygon stroke="null" fill="#ffffff" id="svg_267" points="63.54798698425293,66.07209873199463 62.56094932556152,66.07209873199463 62.56094932556152,70.3501672744751 63.54798698425293,70.3501672744751 63.54798698425293,67.84700107574463 66.44011497497559,67.84700107574463 66.44011497497559,66.62342166900635 63.54798698425293,66.62342166900635 "/>
   <rect stroke="null" fill="#ffffff" id="svg_268" y="17.94254" x="62.560956" width="0.987029" height="4.279344"/>
   <rect stroke="null" fill="#ffffff" id="svg_269" y="-9.558068" x="62.560956" width="0.987029" height="4.279344"/>
   <rect stroke="null" fill="#ffffff" id="svg_270" y="19.364744" x="-0.926954" width="0.988059" height="4.279344"/>
   <rect stroke="null" fill="#ffffff" id="svg_271" y="-8.135864" x="-0.926954" width="0.988059" height="4.279344"/>
   <rect stroke="null" fill="#ffffff" id="svg_272" y="39.992428" x="-0.926954" width="0.988059" height="4.279344"/>
   <rect stroke="null" fill="#ffffff" id="svg_273" y="12.490547" x="-0.926954" width="0.988059" height="4.27807"/>
   <rect stroke="null" fill="#ffffff" id="svg_274" y="46.867898" x="-0.926954" width="0.988059" height="4.27807"/>
   <rect stroke="null" fill="#ffffff" id="svg_275" y="53.742095" x="-0.926954" width="0.988059" height="4.279344"/>
   <rect stroke="null" fill="#ffffff" id="svg_276" y="74.369779" x="-0.926954" width="0.988059" height="3.36898"/>
   <polygon stroke="null" fill="#ffffff" id="svg_277" points="-0.9269533157348633,3.0176706314086914 0.061104774475097656,3.0176706314086914 0.061104774475097656,-1.2603940963745117 -0.9269533157348633,-1.2603940963745117 -0.9269533157348633,1.3662919998168945 -3.71307373046875,1.3662919998168945 -3.71307373046875,2.58986759185791 -0.9269533157348633,2.58986759185791 "/>
   <rect stroke="null" fill="#ffffff" id="svg_278" y="60.618838" x="-0.926954" width="0.988059" height="4.279344"/>
   <rect stroke="null" fill="#ffffff" id="svg_279" y="5.615077" x="-0.926954" width="0.988059" height="4.279344"/>
   <rect stroke="null" fill="#ffffff" id="svg_280" y="33.116957" x="-0.926954" width="0.988059" height="4.27807"/>
   <rect stroke="null" fill="#ffffff" id="svg_281" y="26.241487" x="-0.926954" width="0.988059" height="4.279344"/>
   <polygon stroke="null" fill="#ffffff" id="svg_282" points="27.87495231628418,77.61145114898682 13.910392761230469,77.61145114898682 13.910392761230469,74.38122653961182 12.922334671020508,74.38122653961182 12.922334671020508,77.61145114898682 12.922334671020508,78.83502292633057 12.922334671020508,82.06649875640869 13.910392761230469,82.06649875640869 13.910392761230469,78.83502292633057 27.87495231628418,78.83502292633057 27.87495231628418,82.06649875640869 28.863012313842773,82.06649875640869 28.863012313842773,74.38122653961182 27.87495231628418,74.38122653961182 "/>
  </g>
 </g>
</svg>