<?xml version="1.0" ?><svg id="Layer_1" style="enable-background:new 0 0 512 512;" version="1.1" viewBox="0 0 512 512" xml:space="preserve" xmlns="http://www.w3.org/2000/svg" xmlns:xlink="http://www.w3.org/1999/xlink"><style type="text/css">
	.st0{fill:#010101;}
	.st1{fill-rule:evenodd;clip-rule:evenodd;fill:#010101;}
	.st2{fill:none;}
</style><g id="XMLID_150_"><path class="st0" d="M439.4,393.9L270.5,101.4C267.4,96,262.2,93,256,93c-6.2,0-11.4,3-14.5,8.4L72.6,393.9   c-3.1,5.3-3.1,11.4,0,16.8c3.1,5.3,8.4,8.4,14.5,8.4h337.7c6.2,0,11.4-3.1,14.5-8.4C442.5,405.3,442.5,399.2,439.4,393.9z    M113.6,386.9L256,140.3l142.4,246.6H113.6z" id="XMLID_168_"/><path class="st1" d="M230.4,330.5c5.1,0,9.7,2.1,13,5.4c3.3,3.3,5.4,7.9,5.4,13c0,5.1-2.1,9.7-5.4,13   c-3.3,3.3-7.9,5.4-13,5.4c-5.1,0-9.7-2.1-13-5.4c-3.3-3.3-5.4-7.9-5.4-13c0-5.1,2.1-9.7,5.4-13   C220.7,332.6,225.3,330.5,230.4,330.5L230.4,330.5z M237.3,342c-1.8-1.8-4.2-2.9-6.9-2.9c-2.7,0-5.1,1.1-6.9,2.9   c-1.8,1.8-2.9,4.2-2.9,6.9s1.1,5.1,2.9,6.9c1.8,1.8,4.2,2.9,6.9,2.9c2.7,0,5.1-1.1,6.9-2.9c1.8-1.8,2.9-4.2,2.9-6.9   S239.1,343.7,237.3,342z" id="XMLID_165_"/><path class="st1" d="M284.7,330.5c5.1,0,9.7,2.1,13,5.4c3.3,3.3,5.4,7.9,5.4,13c0,5.1-2.1,9.7-5.4,13   c-3.3,3.3-7.9,5.4-13,5.4c-5.1,0-9.7-2.1-13-5.4c-3.3-3.3-5.4-7.9-5.4-13c0-5.1,2.1-9.7,5.4-13   C275.1,332.6,279.7,330.5,284.7,330.5L284.7,330.5z M291.6,342c-1.8-1.8-4.2-2.9-6.9-2.9c-2.7,0-5.1,1.1-6.9,2.9   c-1.8,1.8-2.9,4.2-2.9,6.9s1.1,5.1,2.9,6.9c1.8,1.8,4.2,2.9,6.9,2.9c2.7,0,5.1-1.1,6.9-2.9c1.8-1.8,2.9-4.2,2.9-6.9   S293.4,343.7,291.6,342z" id="XMLID_162_"/><path class="st1" d="M243.5,234l41.6,0.3l4.3,0v4.3v62.4v4.3l-4.3,0l-23.3,0.2l0.2,11.1l0.1,4.4l-4.4,0l-36.7-0.2   l-5.7,0l1.6-5.4l22.5-78.1l0.9-3.1L243.5,234L243.5,234z M280.8,242.9l-34.1-0.3l-20,69.6l26.6,0.1l-0.2-11l-0.1-4.3l4.3,0   l23.3-0.2V242.9z" id="XMLID_159_"/><polygon class="st1" id="XMLID_158_" points="240.4,219.6 196.3,366.2 194.8,371.2 190.2,368.8 166.6,356.7 170.5,349 189.5,358.8    232.2,217.1  "/><g id="XMLID_154_"><path class="st1" d="M266.6,262.1c4,0,7.2-3.2,7.2-7.2c0-4-3.2-7.2-7.2-7.2c-4,0-7.2,3.2-7.2,7.2    C259.4,258.8,262.6,262.1,266.6,262.1z" id="XMLID_157_"/><path class="st1" d="M268.4,264L268.4,264c4,0,7.3,3.3,7.3,7.3v20.5h-14.6v-12.4h-13.8v-5.9h13.8v-2.2    C261.1,267.3,264.3,264,268.4,264z" id="XMLID_156_"/><path class="st1" d="M245,290h30.6v3.6c0,2-1.6,3.6-3.6,3.6h-23.8v14.9h-6.9v-14.9v-3.6    C241.4,291.7,243,290,245,290z" id="XMLID_155_"/></g><path class="st2" d="M230.4,338.4c4.2,0,7.7,2.5,9.4,6l35.5,0.1c1.7-3.6,5.3-6.1,9.4-6.1c4.2,0,7.8,2.5,9.5,6.1   l14.2,0v-11.9V322v-16.5h-46.6v10.9v4.3h-4.3h-31.8l-0.4,2.1l-0.7,3.5H221h-10.4l-5.1,18.1l15.6,0   C222.7,340.9,226.3,338.4,230.4,338.4z" id="XMLID_153_"/><path class="st0" d="M275.3,344.5l-35.5-0.1c0.6,1.3,1,2.8,1,4.4c0,1.5-0.3,2.9-0.9,4.2l35.3,0.1   c-0.6-1.3-0.9-2.7-0.9-4.2C274.3,347.3,274.7,345.9,275.3,344.5z" id="XMLID_152_"/><path class="st0" d="M312.7,297h-55.2h-4.3v4.3v10.9h-31h-3.5l-0.7,3.4l-0.4,2.1h-10.2h-3.2l-0.9,3.2l-7.6,26.6   l-1.5,5.4l5.7,0l21.1,0c-0.6-1.3-0.9-2.7-0.9-4.1c0-1.6,0.4-3.1,1-4.5l-15.6,0l5.1-18.1H221h3.5l0.7-3.5l0.4-2.1h31.8h4.3v-4.3   v-10.9h46.6V322v10.6v11.9l-14.2,0c0.6,1.3,1,2.8,1,4.3c0,1.5-0.3,3-0.9,4.3l18.5,0l4.3,0v-4.3v-16.2V322v-20.8V297H312.7z" id="XMLID_151_"/></g></svg>